<mxfile host="app.diagrams.net" agent="Mozilla/5.0 (Macintosh; Intel Mac OS X 10_15_7) AppleWebKit/537.36 (KHTML, like Gecko) Chrome/136.0.0.0 Safari/537.36" version="27.0.9">
  <diagram name="Page-1" id="OMLUAgBgsQP9K3OSL_Ji">
    <mxGraphModel dx="2177" dy="1420" grid="1" gridSize="14" guides="1" tooltips="1" connect="1" arrows="1" fold="1" page="1" pageScale="1" pageWidth="1850" pageHeight="2500" math="0" shadow="0">
      <root>
        <mxCell id="0" />
        <mxCell id="1" parent="0" />
        <mxCell id="MVDelJLo3RbLGT03wepj-103" value="users" style="shape=table;startSize=30;container=1;collapsible=1;childLayout=tableLayout;fixedRows=1;rowLines=0;fontStyle=1;align=center;resizeLast=1;html=1;" parent="1" vertex="1">
          <mxGeometry x="966" y="787" width="180" height="164" as="geometry" />
        </mxCell>
        <mxCell id="MVDelJLo3RbLGT03wepj-104" value="" style="shape=tableRow;horizontal=0;startSize=0;swimlaneHead=0;swimlaneBody=0;fillColor=none;collapsible=0;dropTarget=0;points=[[0,0.5],[1,0.5]];portConstraint=eastwest;top=0;left=0;right=0;bottom=1;" parent="MVDelJLo3RbLGT03wepj-103" vertex="1">
          <mxGeometry y="30" width="180" height="30" as="geometry" />
        </mxCell>
        <mxCell id="MVDelJLo3RbLGT03wepj-105" value="PK" style="shape=partialRectangle;connectable=0;fillColor=none;top=0;left=0;bottom=0;right=0;fontStyle=1;overflow=hidden;whiteSpace=wrap;html=1;" parent="MVDelJLo3RbLGT03wepj-104" vertex="1">
          <mxGeometry width="30" height="30" as="geometry">
            <mxRectangle width="30" height="30" as="alternateBounds" />
          </mxGeometry>
        </mxCell>
        <mxCell id="MVDelJLo3RbLGT03wepj-106" value="id" style="shape=partialRectangle;connectable=0;fillColor=none;top=0;left=0;bottom=0;right=0;align=left;spacingLeft=6;fontStyle=5;overflow=hidden;whiteSpace=wrap;html=1;" parent="MVDelJLo3RbLGT03wepj-104" vertex="1">
          <mxGeometry x="30" width="150" height="30" as="geometry">
            <mxRectangle width="150" height="30" as="alternateBounds" />
          </mxGeometry>
        </mxCell>
        <mxCell id="MVDelJLo3RbLGT03wepj-107" value="" style="shape=tableRow;horizontal=0;startSize=0;swimlaneHead=0;swimlaneBody=0;fillColor=none;collapsible=0;dropTarget=0;points=[[0,0.5],[1,0.5]];portConstraint=eastwest;top=0;left=0;right=0;bottom=0;" parent="MVDelJLo3RbLGT03wepj-103" vertex="1">
          <mxGeometry y="60" width="180" height="20" as="geometry" />
        </mxCell>
        <mxCell id="MVDelJLo3RbLGT03wepj-108" value="" style="shape=partialRectangle;connectable=0;fillColor=none;top=0;left=0;bottom=0;right=0;editable=1;overflow=hidden;whiteSpace=wrap;html=1;" parent="MVDelJLo3RbLGT03wepj-107" vertex="1">
          <mxGeometry width="30" height="20" as="geometry">
            <mxRectangle width="30" height="20" as="alternateBounds" />
          </mxGeometry>
        </mxCell>
        <mxCell id="MVDelJLo3RbLGT03wepj-109" value="name" style="shape=partialRectangle;connectable=0;fillColor=none;top=0;left=0;bottom=0;right=0;align=left;spacingLeft=6;overflow=hidden;whiteSpace=wrap;html=1;" parent="MVDelJLo3RbLGT03wepj-107" vertex="1">
          <mxGeometry x="30" width="150" height="20" as="geometry">
            <mxRectangle width="150" height="20" as="alternateBounds" />
          </mxGeometry>
        </mxCell>
        <mxCell id="MVDelJLo3RbLGT03wepj-110" value="" style="shape=tableRow;horizontal=0;startSize=0;swimlaneHead=0;swimlaneBody=0;fillColor=none;collapsible=0;dropTarget=0;points=[[0,0.5],[1,0.5]];portConstraint=eastwest;top=0;left=0;right=0;bottom=0;" parent="MVDelJLo3RbLGT03wepj-103" vertex="1">
          <mxGeometry y="80" width="180" height="24" as="geometry" />
        </mxCell>
        <mxCell id="MVDelJLo3RbLGT03wepj-111" value="" style="shape=partialRectangle;connectable=0;fillColor=none;top=0;left=0;bottom=0;right=0;editable=1;overflow=hidden;whiteSpace=wrap;html=1;" parent="MVDelJLo3RbLGT03wepj-110" vertex="1">
          <mxGeometry width="30" height="24" as="geometry">
            <mxRectangle width="30" height="24" as="alternateBounds" />
          </mxGeometry>
        </mxCell>
        <mxCell id="MVDelJLo3RbLGT03wepj-112" value="email" style="shape=partialRectangle;connectable=0;fillColor=none;top=0;left=0;bottom=0;right=0;align=left;spacingLeft=6;overflow=hidden;whiteSpace=wrap;html=1;" parent="MVDelJLo3RbLGT03wepj-110" vertex="1">
          <mxGeometry x="30" width="150" height="24" as="geometry">
            <mxRectangle width="150" height="24" as="alternateBounds" />
          </mxGeometry>
        </mxCell>
        <mxCell id="MVDelJLo3RbLGT03wepj-113" value="" style="shape=tableRow;horizontal=0;startSize=0;swimlaneHead=0;swimlaneBody=0;fillColor=none;collapsible=0;dropTarget=0;points=[[0,0.5],[1,0.5]];portConstraint=eastwest;top=0;left=0;right=0;bottom=0;" parent="MVDelJLo3RbLGT03wepj-103" vertex="1">
          <mxGeometry y="104" width="180" height="30" as="geometry" />
        </mxCell>
        <mxCell id="MVDelJLo3RbLGT03wepj-114" value="" style="shape=partialRectangle;connectable=0;fillColor=none;top=0;left=0;bottom=0;right=0;editable=1;overflow=hidden;whiteSpace=wrap;html=1;" parent="MVDelJLo3RbLGT03wepj-113" vertex="1">
          <mxGeometry width="30" height="30" as="geometry">
            <mxRectangle width="30" height="30" as="alternateBounds" />
          </mxGeometry>
        </mxCell>
        <mxCell id="MVDelJLo3RbLGT03wepj-115" value="pass" style="shape=partialRectangle;connectable=0;fillColor=none;top=0;left=0;bottom=0;right=0;align=left;spacingLeft=6;overflow=hidden;whiteSpace=wrap;html=1;" parent="MVDelJLo3RbLGT03wepj-113" vertex="1">
          <mxGeometry x="30" width="150" height="30" as="geometry">
            <mxRectangle width="150" height="30" as="alternateBounds" />
          </mxGeometry>
        </mxCell>
        <mxCell id="MVDelJLo3RbLGT03wepj-116" value="" style="shape=tableRow;horizontal=0;startSize=0;swimlaneHead=0;swimlaneBody=0;fillColor=none;collapsible=0;dropTarget=0;points=[[0,0.5],[1,0.5]];portConstraint=eastwest;top=0;left=0;right=0;bottom=0;" parent="MVDelJLo3RbLGT03wepj-103" vertex="1">
          <mxGeometry y="134" width="180" height="30" as="geometry" />
        </mxCell>
        <mxCell id="MVDelJLo3RbLGT03wepj-117" value="" style="shape=partialRectangle;connectable=0;fillColor=none;top=0;left=0;bottom=0;right=0;editable=1;overflow=hidden;whiteSpace=wrap;html=1;" parent="MVDelJLo3RbLGT03wepj-116" vertex="1">
          <mxGeometry width="30" height="30" as="geometry">
            <mxRectangle width="30" height="30" as="alternateBounds" />
          </mxGeometry>
        </mxCell>
        <mxCell id="MVDelJLo3RbLGT03wepj-118" value="role" style="shape=partialRectangle;connectable=0;fillColor=none;top=0;left=0;bottom=0;right=0;align=left;spacingLeft=6;overflow=hidden;whiteSpace=wrap;html=1;" parent="MVDelJLo3RbLGT03wepj-116" vertex="1">
          <mxGeometry x="30" width="150" height="30" as="geometry">
            <mxRectangle width="150" height="30" as="alternateBounds" />
          </mxGeometry>
        </mxCell>
        <mxCell id="MVDelJLo3RbLGT03wepj-196" value="&lt;br class=&quot;Apple-interchange-newline&quot;&gt;&lt;span style=&quot;color: rgb(0, 0, 0); font-family: sans-serif; font-size: 13.12px; font-weight: 400; text-align: left; background-color: rgb(221, 221, 221);&quot;&gt;test_category&lt;/span&gt;" style="shape=table;startSize=30;container=1;collapsible=1;childLayout=tableLayout;fixedRows=1;rowLines=0;fontStyle=1;align=center;resizeLast=1;html=1;" parent="1" vertex="1">
          <mxGeometry x="658" y="1017" width="182" height="110" as="geometry" />
        </mxCell>
        <mxCell id="MVDelJLo3RbLGT03wepj-197" value="" style="shape=tableRow;horizontal=0;startSize=0;swimlaneHead=0;swimlaneBody=0;fillColor=none;collapsible=0;dropTarget=0;points=[[0,0.5],[1,0.5]];portConstraint=eastwest;top=0;left=0;right=0;bottom=1;" parent="MVDelJLo3RbLGT03wepj-196" vertex="1">
          <mxGeometry y="30" width="182" height="30" as="geometry" />
        </mxCell>
        <mxCell id="MVDelJLo3RbLGT03wepj-198" value="PK" style="shape=partialRectangle;connectable=0;fillColor=none;top=0;left=0;bottom=0;right=0;fontStyle=1;overflow=hidden;whiteSpace=wrap;html=1;" parent="MVDelJLo3RbLGT03wepj-197" vertex="1">
          <mxGeometry width="30" height="30" as="geometry">
            <mxRectangle width="30" height="30" as="alternateBounds" />
          </mxGeometry>
        </mxCell>
        <mxCell id="MVDelJLo3RbLGT03wepj-199" value="testCatId" style="shape=partialRectangle;connectable=0;fillColor=none;top=0;left=0;bottom=0;right=0;align=left;spacingLeft=6;fontStyle=5;overflow=hidden;whiteSpace=wrap;html=1;" parent="MVDelJLo3RbLGT03wepj-197" vertex="1">
          <mxGeometry x="30" width="152" height="30" as="geometry">
            <mxRectangle width="152" height="30" as="alternateBounds" />
          </mxGeometry>
        </mxCell>
        <mxCell id="MVDelJLo3RbLGT03wepj-203" value="" style="shape=tableRow;horizontal=0;startSize=0;swimlaneHead=0;swimlaneBody=0;fillColor=none;collapsible=0;dropTarget=0;points=[[0,0.5],[1,0.5]];portConstraint=eastwest;top=0;left=0;right=0;bottom=0;" parent="MVDelJLo3RbLGT03wepj-196" vertex="1">
          <mxGeometry y="60" width="182" height="20" as="geometry" />
        </mxCell>
        <mxCell id="MVDelJLo3RbLGT03wepj-204" value="" style="shape=partialRectangle;connectable=0;fillColor=none;top=0;left=0;bottom=0;right=0;editable=1;overflow=hidden;whiteSpace=wrap;html=1;" parent="MVDelJLo3RbLGT03wepj-203" vertex="1">
          <mxGeometry width="30" height="20" as="geometry">
            <mxRectangle width="30" height="20" as="alternateBounds" />
          </mxGeometry>
        </mxCell>
        <mxCell id="MVDelJLo3RbLGT03wepj-205" value="testCat" style="shape=partialRectangle;connectable=0;fillColor=none;top=0;left=0;bottom=0;right=0;align=left;spacingLeft=6;overflow=hidden;whiteSpace=wrap;html=1;" parent="MVDelJLo3RbLGT03wepj-203" vertex="1">
          <mxGeometry x="30" width="152" height="20" as="geometry">
            <mxRectangle width="152" height="20" as="alternateBounds" />
          </mxGeometry>
        </mxCell>
        <mxCell id="MVDelJLo3RbLGT03wepj-206" value="" style="shape=tableRow;horizontal=0;startSize=0;swimlaneHead=0;swimlaneBody=0;fillColor=none;collapsible=0;dropTarget=0;points=[[0,0.5],[1,0.5]];portConstraint=eastwest;top=0;left=0;right=0;bottom=0;" parent="MVDelJLo3RbLGT03wepj-196" vertex="1">
          <mxGeometry y="80" width="182" height="30" as="geometry" />
        </mxCell>
        <mxCell id="MVDelJLo3RbLGT03wepj-207" value="" style="shape=partialRectangle;connectable=0;fillColor=none;top=0;left=0;bottom=0;right=0;editable=1;overflow=hidden;whiteSpace=wrap;html=1;" parent="MVDelJLo3RbLGT03wepj-206" vertex="1">
          <mxGeometry width="30" height="30" as="geometry">
            <mxRectangle width="30" height="30" as="alternateBounds" />
          </mxGeometry>
        </mxCell>
        <mxCell id="MVDelJLo3RbLGT03wepj-208" value="CatDetails" style="shape=partialRectangle;connectable=0;fillColor=none;top=0;left=0;bottom=0;right=0;align=left;spacingLeft=6;overflow=hidden;whiteSpace=wrap;html=1;" parent="MVDelJLo3RbLGT03wepj-206" vertex="1">
          <mxGeometry x="30" width="152" height="30" as="geometry">
            <mxRectangle width="152" height="30" as="alternateBounds" />
          </mxGeometry>
        </mxCell>
        <mxCell id="MVDelJLo3RbLGT03wepj-221" value="&lt;br class=&quot;Apple-interchange-newline&quot;&gt;&lt;span style=&quot;color: rgb(0, 0, 0); font-family: sans-serif; font-size: 13.12px; font-weight: 400; text-align: left; background-color: rgb(221, 221, 221);&quot;&gt;test&lt;/span&gt;" style="shape=table;startSize=30;container=1;collapsible=1;childLayout=tableLayout;fixedRows=1;rowLines=0;fontStyle=1;align=center;resizeLast=1;html=1;" parent="1" vertex="1">
          <mxGeometry x="966" y="1017" width="182" height="110" as="geometry" />
        </mxCell>
        <mxCell id="MVDelJLo3RbLGT03wepj-222" value="" style="shape=tableRow;horizontal=0;startSize=0;swimlaneHead=0;swimlaneBody=0;fillColor=none;collapsible=0;dropTarget=0;points=[[0,0.5],[1,0.5]];portConstraint=eastwest;top=0;left=0;right=0;bottom=1;" parent="MVDelJLo3RbLGT03wepj-221" vertex="1">
          <mxGeometry y="30" width="182" height="30" as="geometry" />
        </mxCell>
        <mxCell id="MVDelJLo3RbLGT03wepj-223" value="PK" style="shape=partialRectangle;connectable=0;fillColor=none;top=0;left=0;bottom=0;right=0;fontStyle=1;overflow=hidden;whiteSpace=wrap;html=1;" parent="MVDelJLo3RbLGT03wepj-222" vertex="1">
          <mxGeometry width="30" height="30" as="geometry">
            <mxRectangle width="30" height="30" as="alternateBounds" />
          </mxGeometry>
        </mxCell>
        <mxCell id="MVDelJLo3RbLGT03wepj-224" value="addTestId" style="shape=partialRectangle;connectable=0;fillColor=none;top=0;left=0;bottom=0;right=0;align=left;spacingLeft=6;fontStyle=5;overflow=hidden;whiteSpace=wrap;html=1;" parent="MVDelJLo3RbLGT03wepj-222" vertex="1">
          <mxGeometry x="30" width="152" height="30" as="geometry">
            <mxRectangle width="152" height="30" as="alternateBounds" />
          </mxGeometry>
        </mxCell>
        <mxCell id="MVDelJLo3RbLGT03wepj-225" value="" style="shape=tableRow;horizontal=0;startSize=0;swimlaneHead=0;swimlaneBody=0;fillColor=none;collapsible=0;dropTarget=0;points=[[0,0.5],[1,0.5]];portConstraint=eastwest;top=0;left=0;right=0;bottom=0;" parent="MVDelJLo3RbLGT03wepj-221" vertex="1">
          <mxGeometry y="60" width="182" height="20" as="geometry" />
        </mxCell>
        <mxCell id="MVDelJLo3RbLGT03wepj-226" value="FK" style="shape=partialRectangle;connectable=0;fillColor=none;top=0;left=0;bottom=0;right=0;editable=1;overflow=hidden;whiteSpace=wrap;html=1;" parent="MVDelJLo3RbLGT03wepj-225" vertex="1">
          <mxGeometry width="30" height="20" as="geometry">
            <mxRectangle width="30" height="20" as="alternateBounds" />
          </mxGeometry>
        </mxCell>
        <mxCell id="MVDelJLo3RbLGT03wepj-227" value="testCatId" style="shape=partialRectangle;connectable=0;fillColor=none;top=0;left=0;bottom=0;right=0;align=left;spacingLeft=6;overflow=hidden;whiteSpace=wrap;html=1;" parent="MVDelJLo3RbLGT03wepj-225" vertex="1">
          <mxGeometry x="30" width="152" height="20" as="geometry">
            <mxRectangle width="152" height="20" as="alternateBounds" />
          </mxGeometry>
        </mxCell>
        <mxCell id="MVDelJLo3RbLGT03wepj-228" value="" style="shape=tableRow;horizontal=0;startSize=0;swimlaneHead=0;swimlaneBody=0;fillColor=none;collapsible=0;dropTarget=0;points=[[0,0.5],[1,0.5]];portConstraint=eastwest;top=0;left=0;right=0;bottom=0;" parent="MVDelJLo3RbLGT03wepj-221" vertex="1">
          <mxGeometry y="80" width="182" height="30" as="geometry" />
        </mxCell>
        <mxCell id="MVDelJLo3RbLGT03wepj-229" value="" style="shape=partialRectangle;connectable=0;fillColor=none;top=0;left=0;bottom=0;right=0;editable=1;overflow=hidden;whiteSpace=wrap;html=1;" parent="MVDelJLo3RbLGT03wepj-228" vertex="1">
          <mxGeometry width="30" height="30" as="geometry">
            <mxRectangle width="30" height="30" as="alternateBounds" />
          </mxGeometry>
        </mxCell>
        <mxCell id="MVDelJLo3RbLGT03wepj-230" value="testName" style="shape=partialRectangle;connectable=0;fillColor=none;top=0;left=0;bottom=0;right=0;align=left;spacingLeft=6;overflow=hidden;whiteSpace=wrap;html=1;" parent="MVDelJLo3RbLGT03wepj-228" vertex="1">
          <mxGeometry x="30" width="152" height="30" as="geometry">
            <mxRectangle width="152" height="30" as="alternateBounds" />
          </mxGeometry>
        </mxCell>
        <mxCell id="MVDelJLo3RbLGT03wepj-231" value="&lt;a style=&quot;box-sizing: border-box; color: rgb(0, 0, 0); padding-left: 0.3em; line-height: 1.5em; height: 1.5em; position: relative; z-index: 100; vertical-align: sub; font-family: sans-serif; font-size: 13.12px; font-weight: 400; text-align: left;&quot; title=&quot;Browse&quot; href=&quot;http://localhost/phpmyadmin/index.php?route=/sql&amp;amp;pos=0&amp;amp;db=fyp&amp;amp;table=test_ranges&quot; class=&quot;hover_show_full&quot;&gt;test_ranges&lt;/a&gt;" style="shape=table;startSize=30;container=1;collapsible=1;childLayout=tableLayout;fixedRows=1;rowLines=0;fontStyle=1;align=center;resizeLast=1;html=1;" parent="1" vertex="1">
          <mxGeometry x="1274" y="1017" width="182" height="233" as="geometry">
            <mxRectangle x="1274" y="1017" width="112" height="42" as="alternateBounds" />
          </mxGeometry>
        </mxCell>
        <mxCell id="MVDelJLo3RbLGT03wepj-232" value="" style="shape=tableRow;horizontal=0;startSize=0;swimlaneHead=0;swimlaneBody=0;fillColor=none;collapsible=0;dropTarget=0;points=[[0,0.5],[1,0.5]];portConstraint=eastwest;top=0;left=0;right=0;bottom=1;" parent="MVDelJLo3RbLGT03wepj-231" vertex="1">
          <mxGeometry y="30" width="182" height="30" as="geometry" />
        </mxCell>
        <mxCell id="MVDelJLo3RbLGT03wepj-233" value="PK" style="shape=partialRectangle;connectable=0;fillColor=none;top=0;left=0;bottom=0;right=0;fontStyle=1;overflow=hidden;whiteSpace=wrap;html=1;" parent="MVDelJLo3RbLGT03wepj-232" vertex="1">
          <mxGeometry width="30" height="30" as="geometry">
            <mxRectangle width="30" height="30" as="alternateBounds" />
          </mxGeometry>
        </mxCell>
        <mxCell id="MVDelJLo3RbLGT03wepj-234" value="&lt;font face=&quot;sans-serif&quot;&gt;&lt;span style=&quot;font-size: 13.12px; font-weight: 400;&quot;&gt;testRangeId&lt;/span&gt;&lt;/font&gt;" style="shape=partialRectangle;connectable=0;top=0;left=0;bottom=0;right=0;align=left;spacingLeft=6;fontStyle=5;overflow=hidden;html=1;fillColor=none;strokeColor=inherit;gradientColor=none;fontColor=light-dark(default, #ffffff);textShadow=0;labelBackgroundColor=default;" parent="MVDelJLo3RbLGT03wepj-232" vertex="1">
          <mxGeometry x="30" width="152" height="30" as="geometry">
            <mxRectangle width="152" height="30" as="alternateBounds" />
          </mxGeometry>
        </mxCell>
        <mxCell id="MVDelJLo3RbLGT03wepj-235" value="" style="shape=tableRow;horizontal=0;startSize=0;swimlaneHead=0;swimlaneBody=0;fillColor=none;collapsible=0;dropTarget=0;points=[[0,0.5],[1,0.5]];portConstraint=eastwest;top=0;left=0;right=0;bottom=0;" parent="MVDelJLo3RbLGT03wepj-231" vertex="1">
          <mxGeometry y="60" width="182" height="23" as="geometry" />
        </mxCell>
        <mxCell id="MVDelJLo3RbLGT03wepj-236" value="FK" style="shape=partialRectangle;connectable=0;fillColor=none;top=0;left=0;bottom=0;right=0;editable=1;overflow=hidden;whiteSpace=wrap;html=1;" parent="MVDelJLo3RbLGT03wepj-235" vertex="1">
          <mxGeometry width="30" height="23" as="geometry">
            <mxRectangle width="30" height="23" as="alternateBounds" />
          </mxGeometry>
        </mxCell>
        <mxCell id="MVDelJLo3RbLGT03wepj-237" value="&lt;span style=&quot;color: rgb(0, 0, 0); font-family: sans-serif; font-size: 13.12px; font-weight: 700; text-wrap-mode: nowrap; background-color: rgb(255, 255, 255);&quot;&gt;addTestId&amp;nbsp;&lt;/span&gt;" style="shape=partialRectangle;connectable=0;fillColor=none;top=0;left=0;bottom=0;right=0;align=left;spacingLeft=6;overflow=hidden;whiteSpace=wrap;html=1;" parent="MVDelJLo3RbLGT03wepj-235" vertex="1">
          <mxGeometry x="30" width="152" height="23" as="geometry">
            <mxRectangle width="152" height="23" as="alternateBounds" />
          </mxGeometry>
        </mxCell>
        <mxCell id="MVDelJLo3RbLGT03wepj-241" value="" style="shape=tableRow;horizontal=0;startSize=0;swimlaneHead=0;swimlaneBody=0;fillColor=none;collapsible=0;dropTarget=0;points=[[0,0.5],[1,0.5]];portConstraint=eastwest;top=0;left=0;right=0;bottom=0;" parent="MVDelJLo3RbLGT03wepj-231" vertex="1">
          <mxGeometry y="83" width="182" height="30" as="geometry" />
        </mxCell>
        <mxCell id="MVDelJLo3RbLGT03wepj-242" value="" style="shape=partialRectangle;connectable=0;fillColor=none;top=0;left=0;bottom=0;right=0;editable=1;overflow=hidden;whiteSpace=wrap;html=1;" parent="MVDelJLo3RbLGT03wepj-241" vertex="1">
          <mxGeometry width="30" height="30" as="geometry">
            <mxRectangle width="30" height="30" as="alternateBounds" />
          </mxGeometry>
        </mxCell>
        <mxCell id="MVDelJLo3RbLGT03wepj-243" value="&lt;span style=&quot;color: rgb(0, 0, 0); font-family: sans-serif; font-size: 13.12px; font-weight: 700; text-wrap-mode: nowrap; background-color: rgb(255, 255, 255);&quot;&gt;testTypeName&lt;/span&gt;" style="shape=partialRectangle;connectable=0;fillColor=none;top=0;left=0;bottom=0;right=0;align=left;spacingLeft=6;overflow=hidden;whiteSpace=wrap;html=1;" parent="MVDelJLo3RbLGT03wepj-241" vertex="1">
          <mxGeometry x="30" width="152" height="30" as="geometry">
            <mxRectangle width="152" height="30" as="alternateBounds" />
          </mxGeometry>
        </mxCell>
        <mxCell id="MVDelJLo3RbLGT03wepj-244" value="" style="shape=tableRow;horizontal=0;startSize=0;swimlaneHead=0;swimlaneBody=0;fillColor=none;collapsible=0;dropTarget=0;points=[[0,0.5],[1,0.5]];portConstraint=eastwest;top=0;left=0;right=0;bottom=0;" parent="MVDelJLo3RbLGT03wepj-231" vertex="1">
          <mxGeometry y="113" width="182" height="30" as="geometry" />
        </mxCell>
        <mxCell id="MVDelJLo3RbLGT03wepj-245" value="" style="shape=partialRectangle;connectable=0;fillColor=none;top=0;left=0;bottom=0;right=0;editable=1;overflow=hidden;whiteSpace=wrap;html=1;" parent="MVDelJLo3RbLGT03wepj-244" vertex="1">
          <mxGeometry width="30" height="30" as="geometry">
            <mxRectangle width="30" height="30" as="alternateBounds" />
          </mxGeometry>
        </mxCell>
        <mxCell id="MVDelJLo3RbLGT03wepj-246" value="&lt;span style=&quot;color: rgb(0, 0, 0); font-family: sans-serif; font-size: 13.12px; font-weight: 700; text-wrap-mode: nowrap; background-color: rgb(255, 255, 255);&quot;&gt;gender&lt;/span&gt;" style="shape=partialRectangle;connectable=0;fillColor=none;top=0;left=0;bottom=0;right=0;align=left;spacingLeft=6;overflow=hidden;whiteSpace=wrap;html=1;" parent="MVDelJLo3RbLGT03wepj-244" vertex="1">
          <mxGeometry x="30" width="152" height="30" as="geometry">
            <mxRectangle width="152" height="30" as="alternateBounds" />
          </mxGeometry>
        </mxCell>
        <mxCell id="MVDelJLo3RbLGT03wepj-247" value="" style="shape=tableRow;horizontal=0;startSize=0;swimlaneHead=0;swimlaneBody=0;fillColor=none;collapsible=0;dropTarget=0;points=[[0,0.5],[1,0.5]];portConstraint=eastwest;top=0;left=0;right=0;bottom=0;" parent="MVDelJLo3RbLGT03wepj-231" vertex="1">
          <mxGeometry y="143" width="182" height="30" as="geometry" />
        </mxCell>
        <mxCell id="MVDelJLo3RbLGT03wepj-248" value="" style="shape=partialRectangle;connectable=0;fillColor=none;top=0;left=0;bottom=0;right=0;editable=1;overflow=hidden;whiteSpace=wrap;html=1;" parent="MVDelJLo3RbLGT03wepj-247" vertex="1">
          <mxGeometry width="30" height="30" as="geometry">
            <mxRectangle width="30" height="30" as="alternateBounds" />
          </mxGeometry>
        </mxCell>
        <mxCell id="MVDelJLo3RbLGT03wepj-249" value="&lt;span style=&quot;color: rgb(0, 0, 0); font-family: sans-serif; font-size: 13.12px; font-weight: 700; text-wrap-mode: nowrap; background-color: rgb(255, 255, 255);&quot;&gt;minRange&lt;/span&gt;" style="shape=partialRectangle;connectable=0;fillColor=none;top=0;left=0;bottom=0;right=0;align=left;spacingLeft=6;overflow=hidden;whiteSpace=wrap;html=1;" parent="MVDelJLo3RbLGT03wepj-247" vertex="1">
          <mxGeometry x="30" width="152" height="30" as="geometry">
            <mxRectangle width="152" height="30" as="alternateBounds" />
          </mxGeometry>
        </mxCell>
        <mxCell id="MVDelJLo3RbLGT03wepj-250" value="" style="shape=tableRow;horizontal=0;startSize=0;swimlaneHead=0;swimlaneBody=0;fillColor=none;collapsible=0;dropTarget=0;points=[[0,0.5],[1,0.5]];portConstraint=eastwest;top=0;left=0;right=0;bottom=0;" parent="MVDelJLo3RbLGT03wepj-231" vertex="1">
          <mxGeometry y="173" width="182" height="30" as="geometry" />
        </mxCell>
        <mxCell id="MVDelJLo3RbLGT03wepj-251" value="" style="shape=partialRectangle;connectable=0;fillColor=none;top=0;left=0;bottom=0;right=0;editable=1;overflow=hidden;whiteSpace=wrap;html=1;" parent="MVDelJLo3RbLGT03wepj-250" vertex="1">
          <mxGeometry width="30" height="30" as="geometry">
            <mxRectangle width="30" height="30" as="alternateBounds" />
          </mxGeometry>
        </mxCell>
        <mxCell id="MVDelJLo3RbLGT03wepj-252" value="maxRange" style="shape=partialRectangle;connectable=0;fillColor=none;top=0;left=0;bottom=0;right=0;align=left;spacingLeft=6;overflow=hidden;whiteSpace=wrap;html=1;" parent="MVDelJLo3RbLGT03wepj-250" vertex="1">
          <mxGeometry x="30" width="152" height="30" as="geometry">
            <mxRectangle width="152" height="30" as="alternateBounds" />
          </mxGeometry>
        </mxCell>
        <mxCell id="MVDelJLo3RbLGT03wepj-238" value="" style="shape=tableRow;horizontal=0;startSize=0;swimlaneHead=0;swimlaneBody=0;fillColor=none;collapsible=0;dropTarget=0;points=[[0,0.5],[1,0.5]];portConstraint=eastwest;top=0;left=0;right=0;bottom=0;" parent="MVDelJLo3RbLGT03wepj-231" vertex="1">
          <mxGeometry y="203" width="182" height="30" as="geometry" />
        </mxCell>
        <mxCell id="MVDelJLo3RbLGT03wepj-239" value="" style="shape=partialRectangle;connectable=0;fillColor=none;top=0;left=0;bottom=0;right=0;editable=1;overflow=hidden;whiteSpace=wrap;html=1;" parent="MVDelJLo3RbLGT03wepj-238" vertex="1">
          <mxGeometry width="30" height="30" as="geometry">
            <mxRectangle width="30" height="30" as="alternateBounds" />
          </mxGeometry>
        </mxCell>
        <mxCell id="MVDelJLo3RbLGT03wepj-240" value="unit" style="shape=partialRectangle;connectable=0;fillColor=none;top=0;left=0;bottom=0;right=0;align=left;spacingLeft=6;overflow=hidden;whiteSpace=wrap;html=1;" parent="MVDelJLo3RbLGT03wepj-238" vertex="1">
          <mxGeometry x="30" width="152" height="30" as="geometry">
            <mxRectangle width="152" height="30" as="alternateBounds" />
          </mxGeometry>
        </mxCell>
        <mxCell id="MVDelJLo3RbLGT03wepj-275" value="&lt;span style=&quot;font-size: 13.12px;&quot;&gt;customers&lt;/span&gt;" style="shape=table;startSize=30;container=1;collapsible=1;childLayout=tableLayout;fixedRows=1;rowLines=0;fontStyle=1;align=center;resizeLast=1;html=1;" parent="1" vertex="1">
          <mxGeometry x="966" y="1204" width="182" height="383" as="geometry" />
        </mxCell>
        <mxCell id="MVDelJLo3RbLGT03wepj-297" value="" style="shape=tableRow;horizontal=0;startSize=0;swimlaneHead=0;swimlaneBody=0;fillColor=none;collapsible=0;dropTarget=0;points=[[0,0.5],[1,0.5]];portConstraint=eastwest;top=0;left=0;right=0;bottom=1;" parent="MVDelJLo3RbLGT03wepj-275" vertex="1">
          <mxGeometry y="30" width="182" height="30" as="geometry" />
        </mxCell>
        <mxCell id="MVDelJLo3RbLGT03wepj-298" value="PK" style="shape=partialRectangle;connectable=0;fillColor=none;top=0;left=0;bottom=0;right=0;fontStyle=1;overflow=hidden;whiteSpace=wrap;html=1;" parent="MVDelJLo3RbLGT03wepj-297" vertex="1">
          <mxGeometry width="30" height="30" as="geometry">
            <mxRectangle width="30" height="30" as="alternateBounds" />
          </mxGeometry>
        </mxCell>
        <mxCell id="MVDelJLo3RbLGT03wepj-299" value="&lt;font face=&quot;sans-serif&quot;&gt;&lt;span style=&quot;font-size: 13.12px; font-weight: 400;&quot;&gt;customerId&lt;/span&gt;&lt;/font&gt;" style="shape=partialRectangle;connectable=0;top=0;left=0;bottom=0;right=0;align=left;spacingLeft=6;fontStyle=5;overflow=hidden;html=1;fillColor=none;strokeColor=inherit;gradientColor=none;fontColor=light-dark(default, #ffffff);textShadow=0;labelBackgroundColor=default;" parent="MVDelJLo3RbLGT03wepj-297" vertex="1">
          <mxGeometry x="30" width="152" height="30" as="geometry">
            <mxRectangle width="152" height="30" as="alternateBounds" />
          </mxGeometry>
        </mxCell>
        <mxCell id="MVDelJLo3RbLGT03wepj-276" value="" style="shape=tableRow;horizontal=0;startSize=0;swimlaneHead=0;swimlaneBody=0;fillColor=none;collapsible=0;dropTarget=0;points=[[0,0.5],[1,0.5]];portConstraint=eastwest;top=0;left=0;right=0;bottom=1;" parent="MVDelJLo3RbLGT03wepj-275" vertex="1">
          <mxGeometry y="60" width="182" height="30" as="geometry" />
        </mxCell>
        <mxCell id="MVDelJLo3RbLGT03wepj-277" value="FK" style="shape=partialRectangle;connectable=0;fillColor=none;top=0;left=0;bottom=0;right=0;fontStyle=1;overflow=hidden;whiteSpace=wrap;html=1;" parent="MVDelJLo3RbLGT03wepj-276" vertex="1">
          <mxGeometry width="30" height="30" as="geometry">
            <mxRectangle width="30" height="30" as="alternateBounds" />
          </mxGeometry>
        </mxCell>
        <mxCell id="MVDelJLo3RbLGT03wepj-278" value="&lt;font face=&quot;sans-serif&quot;&gt;&lt;span style=&quot;font-size: 13.12px; font-weight: 400;&quot;&gt;userId&lt;/span&gt;&lt;/font&gt;" style="shape=partialRectangle;connectable=0;top=0;left=0;bottom=0;right=0;align=left;spacingLeft=6;fontStyle=5;overflow=hidden;html=1;fillColor=none;strokeColor=inherit;gradientColor=none;fontColor=light-dark(default, #ffffff);textShadow=0;labelBackgroundColor=default;" parent="MVDelJLo3RbLGT03wepj-276" vertex="1">
          <mxGeometry x="30" width="152" height="30" as="geometry">
            <mxRectangle width="152" height="30" as="alternateBounds" />
          </mxGeometry>
        </mxCell>
        <mxCell id="MVDelJLo3RbLGT03wepj-279" value="" style="shape=tableRow;horizontal=0;startSize=0;swimlaneHead=0;swimlaneBody=0;fillColor=none;collapsible=0;dropTarget=0;points=[[0,0.5],[1,0.5]];portConstraint=eastwest;top=0;left=0;right=0;bottom=0;" parent="MVDelJLo3RbLGT03wepj-275" vertex="1">
          <mxGeometry y="90" width="182" height="23" as="geometry" />
        </mxCell>
        <mxCell id="MVDelJLo3RbLGT03wepj-280" value="" style="shape=partialRectangle;connectable=0;fillColor=none;top=0;left=0;bottom=0;right=0;editable=1;overflow=hidden;whiteSpace=wrap;html=1;" parent="MVDelJLo3RbLGT03wepj-279" vertex="1">
          <mxGeometry width="30" height="23" as="geometry">
            <mxRectangle width="30" height="23" as="alternateBounds" />
          </mxGeometry>
        </mxCell>
        <mxCell id="MVDelJLo3RbLGT03wepj-281" value="&lt;font face=&quot;sans-serif&quot; color=&quot;#ededed&quot;&gt;&lt;span style=&quot;font-size: 13.12px; text-wrap-mode: nowrap; background-color: rgb(18, 18, 18);&quot;&gt;&lt;b&gt;name&lt;/b&gt;&lt;/span&gt;&lt;/font&gt;" style="shape=partialRectangle;connectable=0;fillColor=none;top=0;left=0;bottom=0;right=0;align=left;spacingLeft=6;overflow=hidden;whiteSpace=wrap;html=1;" parent="MVDelJLo3RbLGT03wepj-279" vertex="1">
          <mxGeometry x="30" width="152" height="23" as="geometry">
            <mxRectangle width="152" height="23" as="alternateBounds" />
          </mxGeometry>
        </mxCell>
        <mxCell id="MVDelJLo3RbLGT03wepj-282" value="" style="shape=tableRow;horizontal=0;startSize=0;swimlaneHead=0;swimlaneBody=0;fillColor=none;collapsible=0;dropTarget=0;points=[[0,0.5],[1,0.5]];portConstraint=eastwest;top=0;left=0;right=0;bottom=0;" parent="MVDelJLo3RbLGT03wepj-275" vertex="1">
          <mxGeometry y="113" width="182" height="30" as="geometry" />
        </mxCell>
        <mxCell id="MVDelJLo3RbLGT03wepj-283" value="" style="shape=partialRectangle;connectable=0;fillColor=none;top=0;left=0;bottom=0;right=0;editable=1;overflow=hidden;whiteSpace=wrap;html=1;" parent="MVDelJLo3RbLGT03wepj-282" vertex="1">
          <mxGeometry width="30" height="30" as="geometry">
            <mxRectangle width="30" height="30" as="alternateBounds" />
          </mxGeometry>
        </mxCell>
        <mxCell id="MVDelJLo3RbLGT03wepj-284" value="&lt;span style=&quot;color: rgb(0, 0, 0); font-family: sans-serif; font-size: 13.12px; font-weight: 700; text-wrap-mode: nowrap; background-color: rgb(255, 255, 255);&quot;&gt;email&lt;/span&gt;" style="shape=partialRectangle;connectable=0;fillColor=none;top=0;left=0;bottom=0;right=0;align=left;spacingLeft=6;overflow=hidden;whiteSpace=wrap;html=1;" parent="MVDelJLo3RbLGT03wepj-282" vertex="1">
          <mxGeometry x="30" width="152" height="30" as="geometry">
            <mxRectangle width="152" height="30" as="alternateBounds" />
          </mxGeometry>
        </mxCell>
        <mxCell id="MVDelJLo3RbLGT03wepj-285" value="" style="shape=tableRow;horizontal=0;startSize=0;swimlaneHead=0;swimlaneBody=0;fillColor=none;collapsible=0;dropTarget=0;points=[[0,0.5],[1,0.5]];portConstraint=eastwest;top=0;left=0;right=0;bottom=0;" parent="MVDelJLo3RbLGT03wepj-275" vertex="1">
          <mxGeometry y="143" width="182" height="30" as="geometry" />
        </mxCell>
        <mxCell id="MVDelJLo3RbLGT03wepj-286" value="" style="shape=partialRectangle;connectable=0;fillColor=none;top=0;left=0;bottom=0;right=0;editable=1;overflow=hidden;whiteSpace=wrap;html=1;" parent="MVDelJLo3RbLGT03wepj-285" vertex="1">
          <mxGeometry width="30" height="30" as="geometry">
            <mxRectangle width="30" height="30" as="alternateBounds" />
          </mxGeometry>
        </mxCell>
        <mxCell id="MVDelJLo3RbLGT03wepj-287" value="&lt;span style=&quot;color: rgb(0, 0, 0); font-family: sans-serif; font-size: 13.12px; font-weight: 700; text-wrap-mode: nowrap; background-color: rgb(255, 255, 255);&quot;&gt;password&lt;/span&gt;" style="shape=partialRectangle;connectable=0;fillColor=none;top=0;left=0;bottom=0;right=0;align=left;spacingLeft=6;overflow=hidden;whiteSpace=wrap;html=1;" parent="MVDelJLo3RbLGT03wepj-285" vertex="1">
          <mxGeometry x="30" width="152" height="30" as="geometry">
            <mxRectangle width="152" height="30" as="alternateBounds" />
          </mxGeometry>
        </mxCell>
        <mxCell id="MVDelJLo3RbLGT03wepj-288" value="" style="shape=tableRow;horizontal=0;startSize=0;swimlaneHead=0;swimlaneBody=0;fillColor=none;collapsible=0;dropTarget=0;points=[[0,0.5],[1,0.5]];portConstraint=eastwest;top=0;left=0;right=0;bottom=0;" parent="MVDelJLo3RbLGT03wepj-275" vertex="1">
          <mxGeometry y="173" width="182" height="30" as="geometry" />
        </mxCell>
        <mxCell id="MVDelJLo3RbLGT03wepj-289" value="" style="shape=partialRectangle;connectable=0;fillColor=none;top=0;left=0;bottom=0;right=0;editable=1;overflow=hidden;whiteSpace=wrap;html=1;" parent="MVDelJLo3RbLGT03wepj-288" vertex="1">
          <mxGeometry width="30" height="30" as="geometry">
            <mxRectangle width="30" height="30" as="alternateBounds" />
          </mxGeometry>
        </mxCell>
        <mxCell id="MVDelJLo3RbLGT03wepj-290" value="&lt;span style=&quot;color: rgb(0, 0, 0); font-family: sans-serif; font-size: 13.12px; font-weight: 700; text-wrap-mode: nowrap; background-color: rgb(255, 255, 255);&quot;&gt;relation&lt;/span&gt;" style="shape=partialRectangle;connectable=0;fillColor=none;top=0;left=0;bottom=0;right=0;align=left;spacingLeft=6;overflow=hidden;whiteSpace=wrap;html=1;" parent="MVDelJLo3RbLGT03wepj-288" vertex="1">
          <mxGeometry x="30" width="152" height="30" as="geometry">
            <mxRectangle width="152" height="30" as="alternateBounds" />
          </mxGeometry>
        </mxCell>
        <mxCell id="MVDelJLo3RbLGT03wepj-291" value="" style="shape=tableRow;horizontal=0;startSize=0;swimlaneHead=0;swimlaneBody=0;fillColor=none;collapsible=0;dropTarget=0;points=[[0,0.5],[1,0.5]];portConstraint=eastwest;top=0;left=0;right=0;bottom=0;" parent="MVDelJLo3RbLGT03wepj-275" vertex="1">
          <mxGeometry y="203" width="182" height="30" as="geometry" />
        </mxCell>
        <mxCell id="MVDelJLo3RbLGT03wepj-292" value="" style="shape=partialRectangle;connectable=0;fillColor=none;top=0;left=0;bottom=0;right=0;editable=1;overflow=hidden;whiteSpace=wrap;html=1;" parent="MVDelJLo3RbLGT03wepj-291" vertex="1">
          <mxGeometry width="30" height="30" as="geometry">
            <mxRectangle width="30" height="30" as="alternateBounds" />
          </mxGeometry>
        </mxCell>
        <mxCell id="MVDelJLo3RbLGT03wepj-293" value="title" style="shape=partialRectangle;connectable=0;fillColor=none;top=0;left=0;bottom=0;right=0;align=left;spacingLeft=6;overflow=hidden;whiteSpace=wrap;html=1;" parent="MVDelJLo3RbLGT03wepj-291" vertex="1">
          <mxGeometry x="30" width="152" height="30" as="geometry">
            <mxRectangle width="152" height="30" as="alternateBounds" />
          </mxGeometry>
        </mxCell>
        <mxCell id="MVDelJLo3RbLGT03wepj-300" value="" style="shape=tableRow;horizontal=0;startSize=0;swimlaneHead=0;swimlaneBody=0;fillColor=none;collapsible=0;dropTarget=0;points=[[0,0.5],[1,0.5]];portConstraint=eastwest;top=0;left=0;right=0;bottom=0;" parent="MVDelJLo3RbLGT03wepj-275" vertex="1">
          <mxGeometry y="233" width="182" height="30" as="geometry" />
        </mxCell>
        <mxCell id="MVDelJLo3RbLGT03wepj-301" value="" style="shape=partialRectangle;connectable=0;fillColor=none;top=0;left=0;bottom=0;right=0;editable=1;overflow=hidden;whiteSpace=wrap;html=1;" parent="MVDelJLo3RbLGT03wepj-300" vertex="1">
          <mxGeometry width="30" height="30" as="geometry">
            <mxRectangle width="30" height="30" as="alternateBounds" />
          </mxGeometry>
        </mxCell>
        <mxCell id="MVDelJLo3RbLGT03wepj-302" value="age" style="shape=partialRectangle;connectable=0;fillColor=none;top=0;left=0;bottom=0;right=0;align=left;spacingLeft=6;overflow=hidden;whiteSpace=wrap;html=1;" parent="MVDelJLo3RbLGT03wepj-300" vertex="1">
          <mxGeometry x="30" width="152" height="30" as="geometry">
            <mxRectangle width="152" height="30" as="alternateBounds" />
          </mxGeometry>
        </mxCell>
        <mxCell id="MVDelJLo3RbLGT03wepj-303" value="" style="shape=tableRow;horizontal=0;startSize=0;swimlaneHead=0;swimlaneBody=0;fillColor=none;collapsible=0;dropTarget=0;points=[[0,0.5],[1,0.5]];portConstraint=eastwest;top=0;left=0;right=0;bottom=0;" parent="MVDelJLo3RbLGT03wepj-275" vertex="1">
          <mxGeometry y="263" width="182" height="30" as="geometry" />
        </mxCell>
        <mxCell id="MVDelJLo3RbLGT03wepj-304" value="" style="shape=partialRectangle;connectable=0;fillColor=none;top=0;left=0;bottom=0;right=0;editable=1;overflow=hidden;whiteSpace=wrap;html=1;" parent="MVDelJLo3RbLGT03wepj-303" vertex="1">
          <mxGeometry width="30" height="30" as="geometry">
            <mxRectangle width="30" height="30" as="alternateBounds" />
          </mxGeometry>
        </mxCell>
        <mxCell id="MVDelJLo3RbLGT03wepj-305" value="lcStatus" style="shape=partialRectangle;connectable=0;fillColor=none;top=0;left=0;bottom=0;right=0;align=left;spacingLeft=6;overflow=hidden;whiteSpace=wrap;html=1;" parent="MVDelJLo3RbLGT03wepj-303" vertex="1">
          <mxGeometry x="30" width="152" height="30" as="geometry">
            <mxRectangle width="152" height="30" as="alternateBounds" />
          </mxGeometry>
        </mxCell>
        <mxCell id="MVDelJLo3RbLGT03wepj-306" value="" style="shape=tableRow;horizontal=0;startSize=0;swimlaneHead=0;swimlaneBody=0;fillColor=none;collapsible=0;dropTarget=0;points=[[0,0.5],[1,0.5]];portConstraint=eastwest;top=0;left=0;right=0;bottom=0;" parent="MVDelJLo3RbLGT03wepj-275" vertex="1">
          <mxGeometry y="293" width="182" height="30" as="geometry" />
        </mxCell>
        <mxCell id="MVDelJLo3RbLGT03wepj-307" value="" style="shape=partialRectangle;connectable=0;fillColor=none;top=0;left=0;bottom=0;right=0;editable=1;overflow=hidden;whiteSpace=wrap;html=1;" parent="MVDelJLo3RbLGT03wepj-306" vertex="1">
          <mxGeometry width="30" height="30" as="geometry">
            <mxRectangle width="30" height="30" as="alternateBounds" />
          </mxGeometry>
        </mxCell>
        <mxCell id="MVDelJLo3RbLGT03wepj-308" value="extPanelId" style="shape=partialRectangle;connectable=0;fillColor=none;top=0;left=0;bottom=0;right=0;align=left;spacingLeft=6;overflow=hidden;whiteSpace=wrap;html=1;" parent="MVDelJLo3RbLGT03wepj-306" vertex="1">
          <mxGeometry x="30" width="152" height="30" as="geometry">
            <mxRectangle width="152" height="30" as="alternateBounds" />
          </mxGeometry>
        </mxCell>
        <mxCell id="MVDelJLo3RbLGT03wepj-309" value="" style="shape=tableRow;horizontal=0;startSize=0;swimlaneHead=0;swimlaneBody=0;fillColor=none;collapsible=0;dropTarget=0;points=[[0,0.5],[1,0.5]];portConstraint=eastwest;top=0;left=0;right=0;bottom=0;" parent="MVDelJLo3RbLGT03wepj-275" vertex="1">
          <mxGeometry y="323" width="182" height="30" as="geometry" />
        </mxCell>
        <mxCell id="MVDelJLo3RbLGT03wepj-310" value="" style="shape=partialRectangle;connectable=0;fillColor=none;top=0;left=0;bottom=0;right=0;editable=1;overflow=hidden;whiteSpace=wrap;html=1;" parent="MVDelJLo3RbLGT03wepj-309" vertex="1">
          <mxGeometry width="30" height="30" as="geometry">
            <mxRectangle width="30" height="30" as="alternateBounds" />
          </mxGeometry>
        </mxCell>
        <mxCell id="MVDelJLo3RbLGT03wepj-311" value="stafPanelId" style="shape=partialRectangle;connectable=0;fillColor=none;top=0;left=0;bottom=0;right=0;align=left;spacingLeft=6;overflow=hidden;whiteSpace=wrap;html=1;" parent="MVDelJLo3RbLGT03wepj-309" vertex="1">
          <mxGeometry x="30" width="152" height="30" as="geometry">
            <mxRectangle width="152" height="30" as="alternateBounds" />
          </mxGeometry>
        </mxCell>
        <mxCell id="MVDelJLo3RbLGT03wepj-294" value="" style="shape=tableRow;horizontal=0;startSize=0;swimlaneHead=0;swimlaneBody=0;fillColor=none;collapsible=0;dropTarget=0;points=[[0,0.5],[1,0.5]];portConstraint=eastwest;top=0;left=0;right=0;bottom=0;" parent="MVDelJLo3RbLGT03wepj-275" vertex="1">
          <mxGeometry y="353" width="182" height="30" as="geometry" />
        </mxCell>
        <mxCell id="MVDelJLo3RbLGT03wepj-295" value="" style="shape=partialRectangle;connectable=0;fillColor=none;top=0;left=0;bottom=0;right=0;editable=1;overflow=hidden;whiteSpace=wrap;html=1;" parent="MVDelJLo3RbLGT03wepj-294" vertex="1">
          <mxGeometry width="30" height="30" as="geometry">
            <mxRectangle width="30" height="30" as="alternateBounds" />
          </mxGeometry>
        </mxCell>
        <mxCell id="MVDelJLo3RbLGT03wepj-296" value="testDiscount" style="shape=partialRectangle;connectable=0;fillColor=none;top=0;left=0;bottom=0;right=0;align=left;spacingLeft=6;overflow=hidden;whiteSpace=wrap;html=1;" parent="MVDelJLo3RbLGT03wepj-294" vertex="1">
          <mxGeometry x="30" width="152" height="30" as="geometry">
            <mxRectangle width="152" height="30" as="alternateBounds" />
          </mxGeometry>
        </mxCell>
        <mxCell id="MVDelJLo3RbLGT03wepj-312" value="customer_tests" style="shape=table;startSize=30;container=1;collapsible=1;childLayout=tableLayout;fixedRows=1;rowLines=0;fontStyle=1;align=center;resizeLast=1;html=1;" parent="1" vertex="1">
          <mxGeometry x="1274" y="1358" width="182" height="140" as="geometry" />
        </mxCell>
        <mxCell id="MVDelJLo3RbLGT03wepj-313" value="" style="shape=tableRow;horizontal=0;startSize=0;swimlaneHead=0;swimlaneBody=0;fillColor=none;collapsible=0;dropTarget=0;points=[[0,0.5],[1,0.5]];portConstraint=eastwest;top=0;left=0;right=0;bottom=1;" parent="MVDelJLo3RbLGT03wepj-312" vertex="1">
          <mxGeometry y="30" width="182" height="30" as="geometry" />
        </mxCell>
        <mxCell id="MVDelJLo3RbLGT03wepj-314" value="PK" style="shape=partialRectangle;connectable=0;fillColor=none;top=0;left=0;bottom=0;right=0;fontStyle=1;overflow=hidden;whiteSpace=wrap;html=1;" parent="MVDelJLo3RbLGT03wepj-313" vertex="1">
          <mxGeometry width="30" height="30" as="geometry">
            <mxRectangle width="30" height="30" as="alternateBounds" />
          </mxGeometry>
        </mxCell>
        <mxCell id="MVDelJLo3RbLGT03wepj-315" value="ctId" style="shape=partialRectangle;connectable=0;fillColor=none;top=0;left=0;bottom=0;right=0;align=left;spacingLeft=6;fontStyle=5;overflow=hidden;whiteSpace=wrap;html=1;" parent="MVDelJLo3RbLGT03wepj-313" vertex="1">
          <mxGeometry x="30" width="152" height="30" as="geometry">
            <mxRectangle width="152" height="30" as="alternateBounds" />
          </mxGeometry>
        </mxCell>
        <mxCell id="MVDelJLo3RbLGT03wepj-316" value="" style="shape=tableRow;horizontal=0;startSize=0;swimlaneHead=0;swimlaneBody=0;fillColor=none;collapsible=0;dropTarget=0;points=[[0,0.5],[1,0.5]];portConstraint=eastwest;top=0;left=0;right=0;bottom=0;" parent="MVDelJLo3RbLGT03wepj-312" vertex="1">
          <mxGeometry y="60" width="182" height="20" as="geometry" />
        </mxCell>
        <mxCell id="MVDelJLo3RbLGT03wepj-317" value="FK" style="shape=partialRectangle;connectable=0;fillColor=none;top=0;left=0;bottom=0;right=0;editable=1;overflow=hidden;whiteSpace=wrap;html=1;" parent="MVDelJLo3RbLGT03wepj-316" vertex="1">
          <mxGeometry width="30" height="20" as="geometry">
            <mxRectangle width="30" height="20" as="alternateBounds" />
          </mxGeometry>
        </mxCell>
        <mxCell id="MVDelJLo3RbLGT03wepj-318" value="customerId" style="shape=partialRectangle;connectable=0;fillColor=none;top=0;left=0;bottom=0;right=0;align=left;spacingLeft=6;overflow=hidden;whiteSpace=wrap;html=1;" parent="MVDelJLo3RbLGT03wepj-316" vertex="1">
          <mxGeometry x="30" width="152" height="20" as="geometry">
            <mxRectangle width="152" height="20" as="alternateBounds" />
          </mxGeometry>
        </mxCell>
        <mxCell id="MVDelJLo3RbLGT03wepj-322" value="" style="shape=tableRow;horizontal=0;startSize=0;swimlaneHead=0;swimlaneBody=0;fillColor=none;collapsible=0;dropTarget=0;points=[[0,0.5],[1,0.5]];portConstraint=eastwest;top=0;left=0;right=0;bottom=0;" parent="MVDelJLo3RbLGT03wepj-312" vertex="1">
          <mxGeometry y="80" width="182" height="30" as="geometry" />
        </mxCell>
        <mxCell id="MVDelJLo3RbLGT03wepj-323" value="FK" style="shape=partialRectangle;connectable=0;fillColor=none;top=0;left=0;bottom=0;right=0;editable=1;overflow=hidden;whiteSpace=wrap;html=1;" parent="MVDelJLo3RbLGT03wepj-322" vertex="1">
          <mxGeometry width="30" height="30" as="geometry">
            <mxRectangle width="30" height="30" as="alternateBounds" />
          </mxGeometry>
        </mxCell>
        <mxCell id="MVDelJLo3RbLGT03wepj-324" value="addTestId" style="shape=partialRectangle;connectable=0;fillColor=none;top=0;left=0;bottom=0;right=0;align=left;spacingLeft=6;overflow=hidden;whiteSpace=wrap;html=1;" parent="MVDelJLo3RbLGT03wepj-322" vertex="1">
          <mxGeometry x="30" width="152" height="30" as="geometry">
            <mxRectangle width="152" height="30" as="alternateBounds" />
          </mxGeometry>
        </mxCell>
        <mxCell id="MVDelJLo3RbLGT03wepj-319" value="" style="shape=tableRow;horizontal=0;startSize=0;swimlaneHead=0;swimlaneBody=0;fillColor=none;collapsible=0;dropTarget=0;points=[[0,0.5],[1,0.5]];portConstraint=eastwest;top=0;left=0;right=0;bottom=0;" parent="MVDelJLo3RbLGT03wepj-312" vertex="1">
          <mxGeometry y="110" width="182" height="30" as="geometry" />
        </mxCell>
        <mxCell id="MVDelJLo3RbLGT03wepj-320" value="" style="shape=partialRectangle;connectable=0;fillColor=none;top=0;left=0;bottom=0;right=0;editable=1;overflow=hidden;whiteSpace=wrap;html=1;" parent="MVDelJLo3RbLGT03wepj-319" vertex="1">
          <mxGeometry width="30" height="30" as="geometry">
            <mxRectangle width="30" height="30" as="alternateBounds" />
          </mxGeometry>
        </mxCell>
        <mxCell id="MVDelJLo3RbLGT03wepj-321" value="testStatus" style="shape=partialRectangle;connectable=0;fillColor=none;top=0;left=0;bottom=0;right=0;align=left;spacingLeft=6;overflow=hidden;whiteSpace=wrap;html=1;" parent="MVDelJLo3RbLGT03wepj-319" vertex="1">
          <mxGeometry x="30" width="152" height="30" as="geometry">
            <mxRectangle width="152" height="30" as="alternateBounds" />
          </mxGeometry>
        </mxCell>
        <mxCell id="MVDelJLo3RbLGT03wepj-325" value="testReport" style="shape=table;startSize=28;container=1;collapsible=1;childLayout=tableLayout;fixedRows=1;rowLines=0;fontStyle=1;align=center;resizeLast=1;html=1;" parent="1" vertex="1">
          <mxGeometry x="1274" y="1601" width="182" height="140" as="geometry" />
        </mxCell>
        <mxCell id="MVDelJLo3RbLGT03wepj-326" value="" style="shape=tableRow;horizontal=0;startSize=0;swimlaneHead=0;swimlaneBody=0;fillColor=none;collapsible=0;dropTarget=0;points=[[0,0.5],[1,0.5]];portConstraint=eastwest;top=0;left=0;right=0;bottom=1;" parent="MVDelJLo3RbLGT03wepj-325" vertex="1">
          <mxGeometry y="28" width="182" height="30" as="geometry" />
        </mxCell>
        <mxCell id="MVDelJLo3RbLGT03wepj-327" value="PK" style="shape=partialRectangle;connectable=0;fillColor=none;top=0;left=0;bottom=0;right=0;fontStyle=1;overflow=hidden;whiteSpace=wrap;html=1;" parent="MVDelJLo3RbLGT03wepj-326" vertex="1">
          <mxGeometry width="30" height="30" as="geometry">
            <mxRectangle width="30" height="30" as="alternateBounds" />
          </mxGeometry>
        </mxCell>
        <mxCell id="MVDelJLo3RbLGT03wepj-328" value="testReportId" style="shape=partialRectangle;connectable=0;fillColor=none;top=0;left=0;bottom=0;right=0;align=left;spacingLeft=6;fontStyle=5;overflow=hidden;whiteSpace=wrap;html=1;" parent="MVDelJLo3RbLGT03wepj-326" vertex="1">
          <mxGeometry x="30" width="152" height="30" as="geometry">
            <mxRectangle width="152" height="30" as="alternateBounds" />
          </mxGeometry>
        </mxCell>
        <mxCell id="MVDelJLo3RbLGT03wepj-329" value="" style="shape=tableRow;horizontal=0;startSize=0;swimlaneHead=0;swimlaneBody=0;fillColor=none;collapsible=0;dropTarget=0;points=[[0,0.5],[1,0.5]];portConstraint=eastwest;top=0;left=0;right=0;bottom=0;" parent="MVDelJLo3RbLGT03wepj-325" vertex="1">
          <mxGeometry y="58" width="182" height="20" as="geometry" />
        </mxCell>
        <mxCell id="MVDelJLo3RbLGT03wepj-330" value="FK" style="shape=partialRectangle;connectable=0;fillColor=none;top=0;left=0;bottom=0;right=0;editable=1;overflow=hidden;whiteSpace=wrap;html=1;" parent="MVDelJLo3RbLGT03wepj-329" vertex="1">
          <mxGeometry width="30" height="20" as="geometry">
            <mxRectangle width="30" height="20" as="alternateBounds" />
          </mxGeometry>
        </mxCell>
        <mxCell id="MVDelJLo3RbLGT03wepj-331" value="ctId" style="shape=partialRectangle;connectable=0;fillColor=none;top=0;left=0;bottom=0;right=0;align=left;spacingLeft=6;overflow=hidden;whiteSpace=wrap;html=1;" parent="MVDelJLo3RbLGT03wepj-329" vertex="1">
          <mxGeometry x="30" width="152" height="20" as="geometry">
            <mxRectangle width="152" height="20" as="alternateBounds" />
          </mxGeometry>
        </mxCell>
        <mxCell id="MVDelJLo3RbLGT03wepj-332" value="" style="shape=tableRow;horizontal=0;startSize=0;swimlaneHead=0;swimlaneBody=0;fillColor=none;collapsible=0;dropTarget=0;points=[[0,0.5],[1,0.5]];portConstraint=eastwest;top=0;left=0;right=0;bottom=0;" parent="MVDelJLo3RbLGT03wepj-325" vertex="1">
          <mxGeometry y="78" width="182" height="30" as="geometry" />
        </mxCell>
        <mxCell id="MVDelJLo3RbLGT03wepj-333" value="FK" style="shape=partialRectangle;connectable=0;fillColor=none;top=0;left=0;bottom=0;right=0;editable=1;overflow=hidden;whiteSpace=wrap;html=1;" parent="MVDelJLo3RbLGT03wepj-332" vertex="1">
          <mxGeometry width="30" height="30" as="geometry">
            <mxRectangle width="30" height="30" as="alternateBounds" />
          </mxGeometry>
        </mxCell>
        <mxCell id="MVDelJLo3RbLGT03wepj-334" value="reporterId" style="shape=partialRectangle;connectable=0;fillColor=none;top=0;left=0;bottom=0;right=0;align=left;spacingLeft=6;overflow=hidden;whiteSpace=wrap;html=1;" parent="MVDelJLo3RbLGT03wepj-332" vertex="1">
          <mxGeometry x="30" width="152" height="30" as="geometry">
            <mxRectangle width="152" height="30" as="alternateBounds" />
          </mxGeometry>
        </mxCell>
        <mxCell id="MVDelJLo3RbLGT03wepj-335" value="" style="shape=tableRow;horizontal=0;startSize=0;swimlaneHead=0;swimlaneBody=0;fillColor=none;collapsible=0;dropTarget=0;points=[[0,0.5],[1,0.5]];portConstraint=eastwest;top=0;left=0;right=0;bottom=0;" parent="MVDelJLo3RbLGT03wepj-325" vertex="1">
          <mxGeometry y="108" width="182" height="30" as="geometry" />
        </mxCell>
        <mxCell id="MVDelJLo3RbLGT03wepj-336" value="" style="shape=partialRectangle;connectable=0;fillColor=none;top=0;left=0;bottom=0;right=0;editable=1;overflow=hidden;whiteSpace=wrap;html=1;" parent="MVDelJLo3RbLGT03wepj-335" vertex="1">
          <mxGeometry width="30" height="30" as="geometry">
            <mxRectangle width="30" height="30" as="alternateBounds" />
          </mxGeometry>
        </mxCell>
        <mxCell id="MVDelJLo3RbLGT03wepj-337" value="signStatus" style="shape=partialRectangle;connectable=0;fillColor=none;top=0;left=0;bottom=0;right=0;align=left;spacingLeft=6;overflow=hidden;whiteSpace=wrap;html=1;" parent="MVDelJLo3RbLGT03wepj-335" vertex="1">
          <mxGeometry x="30" width="152" height="30" as="geometry">
            <mxRectangle width="152" height="30" as="alternateBounds" />
          </mxGeometry>
        </mxCell>
        <mxCell id="MVDelJLo3RbLGT03wepj-338" value="&lt;a style=&quot;box-sizing: border-box; color: rgb(0, 0, 0); padding-left: 0.3em; line-height: 1.5em; height: 1.5em; position: relative; z-index: 100; vertical-align: sub; font-family: sans-serif; font-size: 13.12px; font-weight: 400; text-align: left;&quot; title=&quot;Browse&quot; href=&quot;http://localhost/phpmyadmin/index.php?route=/sql&amp;amp;pos=0&amp;amp;db=fyp&amp;amp;table=testreportchild&quot; class=&quot;hover_show_full&quot;&gt;testreportchild&lt;/a&gt;" style="shape=table;startSize=28;container=1;collapsible=1;childLayout=tableLayout;fixedRows=1;rowLines=0;fontStyle=1;align=center;resizeLast=1;html=1;" parent="1" vertex="1">
          <mxGeometry x="966" y="1631" width="182" height="140" as="geometry" />
        </mxCell>
        <mxCell id="dCpKo4cYCezhhlU8Z5YK-13" value="" style="shape=tableRow;horizontal=0;startSize=0;swimlaneHead=0;swimlaneBody=0;fillColor=none;collapsible=0;dropTarget=0;points=[[0,0.5],[1,0.5]];portConstraint=eastwest;top=0;left=0;right=0;bottom=1;" vertex="1" parent="MVDelJLo3RbLGT03wepj-338">
          <mxGeometry y="28" width="182" height="30" as="geometry" />
        </mxCell>
        <mxCell id="dCpKo4cYCezhhlU8Z5YK-14" value="PK" style="shape=partialRectangle;connectable=0;fillColor=none;top=0;left=0;bottom=0;right=0;fontStyle=1;overflow=hidden;whiteSpace=wrap;html=1;" vertex="1" parent="dCpKo4cYCezhhlU8Z5YK-13">
          <mxGeometry width="28" height="30" as="geometry">
            <mxRectangle width="28" height="30" as="alternateBounds" />
          </mxGeometry>
        </mxCell>
        <mxCell id="dCpKo4cYCezhhlU8Z5YK-15" value="reportChildId" style="shape=partialRectangle;connectable=0;fillColor=none;top=0;left=0;bottom=0;right=0;align=left;spacingLeft=6;fontStyle=5;overflow=hidden;whiteSpace=wrap;html=1;" vertex="1" parent="dCpKo4cYCezhhlU8Z5YK-13">
          <mxGeometry x="28" width="154" height="30" as="geometry">
            <mxRectangle width="154" height="30" as="alternateBounds" />
          </mxGeometry>
        </mxCell>
        <mxCell id="MVDelJLo3RbLGT03wepj-339" value="" style="shape=tableRow;horizontal=0;startSize=0;swimlaneHead=0;swimlaneBody=0;fillColor=none;collapsible=0;dropTarget=0;points=[[0,0.5],[1,0.5]];portConstraint=eastwest;top=0;left=0;right=0;bottom=1;" parent="MVDelJLo3RbLGT03wepj-338" vertex="1">
          <mxGeometry y="58" width="182" height="30" as="geometry" />
        </mxCell>
        <mxCell id="MVDelJLo3RbLGT03wepj-340" value="FK" style="shape=partialRectangle;connectable=0;fillColor=none;top=0;left=0;bottom=0;right=0;fontStyle=1;overflow=hidden;whiteSpace=wrap;html=1;" parent="MVDelJLo3RbLGT03wepj-339" vertex="1">
          <mxGeometry width="28" height="30" as="geometry">
            <mxRectangle width="28" height="30" as="alternateBounds" />
          </mxGeometry>
        </mxCell>
        <mxCell id="MVDelJLo3RbLGT03wepj-341" value="testReportId" style="shape=partialRectangle;connectable=0;fillColor=none;top=0;left=0;bottom=0;right=0;align=left;spacingLeft=6;fontStyle=5;overflow=hidden;whiteSpace=wrap;html=1;" parent="MVDelJLo3RbLGT03wepj-339" vertex="1">
          <mxGeometry x="28" width="154" height="30" as="geometry">
            <mxRectangle width="154" height="30" as="alternateBounds" />
          </mxGeometry>
        </mxCell>
        <mxCell id="MVDelJLo3RbLGT03wepj-342" value="" style="shape=tableRow;horizontal=0;startSize=0;swimlaneHead=0;swimlaneBody=0;fillColor=none;collapsible=0;dropTarget=0;points=[[0,0.5],[1,0.5]];portConstraint=eastwest;top=0;left=0;right=0;bottom=0;" parent="MVDelJLo3RbLGT03wepj-338" vertex="1">
          <mxGeometry y="88" width="182" height="20" as="geometry" />
        </mxCell>
        <mxCell id="MVDelJLo3RbLGT03wepj-343" value="FK" style="shape=partialRectangle;connectable=0;fillColor=none;top=0;left=0;bottom=0;right=0;editable=1;overflow=hidden;whiteSpace=wrap;html=1;" parent="MVDelJLo3RbLGT03wepj-342" vertex="1">
          <mxGeometry width="28" height="20" as="geometry">
            <mxRectangle width="28" height="20" as="alternateBounds" />
          </mxGeometry>
        </mxCell>
        <mxCell id="MVDelJLo3RbLGT03wepj-344" value="testRangeId" style="shape=partialRectangle;connectable=0;fillColor=none;top=0;left=0;bottom=0;right=0;align=left;spacingLeft=6;overflow=hidden;whiteSpace=wrap;html=1;" parent="MVDelJLo3RbLGT03wepj-342" vertex="1">
          <mxGeometry x="28" width="154" height="20" as="geometry">
            <mxRectangle width="154" height="20" as="alternateBounds" />
          </mxGeometry>
        </mxCell>
        <mxCell id="MVDelJLo3RbLGT03wepj-345" value="" style="shape=tableRow;horizontal=0;startSize=0;swimlaneHead=0;swimlaneBody=0;fillColor=none;collapsible=0;dropTarget=0;points=[[0,0.5],[1,0.5]];portConstraint=eastwest;top=0;left=0;right=0;bottom=0;" parent="MVDelJLo3RbLGT03wepj-338" vertex="1">
          <mxGeometry y="108" width="182" height="30" as="geometry" />
        </mxCell>
        <mxCell id="MVDelJLo3RbLGT03wepj-346" value="" style="shape=partialRectangle;connectable=0;fillColor=none;top=0;left=0;bottom=0;right=0;editable=1;overflow=hidden;whiteSpace=wrap;html=1;" parent="MVDelJLo3RbLGT03wepj-345" vertex="1">
          <mxGeometry width="28" height="30" as="geometry">
            <mxRectangle width="28" height="30" as="alternateBounds" />
          </mxGeometry>
        </mxCell>
        <mxCell id="MVDelJLo3RbLGT03wepj-347" value="&lt;span style=&quot;color: rgb(0, 0, 0); font-family: sans-serif; font-size: 13.12px; font-weight: 700; text-wrap-mode: nowrap; background-color: rgb(255, 255, 255);&quot;&gt;reportValue&lt;/span&gt;" style="shape=partialRectangle;connectable=0;fillColor=none;top=0;left=0;bottom=0;right=0;align=left;spacingLeft=6;overflow=hidden;whiteSpace=wrap;html=1;" parent="MVDelJLo3RbLGT03wepj-345" vertex="1">
          <mxGeometry x="28" width="154" height="30" as="geometry">
            <mxRectangle width="154" height="30" as="alternateBounds" />
          </mxGeometry>
        </mxCell>
        <mxCell id="MVDelJLo3RbLGT03wepj-375" value="payments" style="shape=table;startSize=30;container=1;collapsible=1;childLayout=tableLayout;fixedRows=1;rowLines=0;fontStyle=1;align=center;resizeLast=1;html=1;" parent="1" vertex="1">
          <mxGeometry x="658" y="1601" width="182" height="140" as="geometry" />
        </mxCell>
        <mxCell id="MVDelJLo3RbLGT03wepj-376" value="" style="shape=tableRow;horizontal=0;startSize=0;swimlaneHead=0;swimlaneBody=0;fillColor=none;collapsible=0;dropTarget=0;points=[[0,0.5],[1,0.5]];portConstraint=eastwest;top=0;left=0;right=0;bottom=1;" parent="MVDelJLo3RbLGT03wepj-375" vertex="1">
          <mxGeometry y="30" width="182" height="30" as="geometry" />
        </mxCell>
        <mxCell id="MVDelJLo3RbLGT03wepj-377" value="id" style="shape=partialRectangle;connectable=0;fillColor=none;top=0;left=0;bottom=0;right=0;fontStyle=1;overflow=hidden;whiteSpace=wrap;html=1;" parent="MVDelJLo3RbLGT03wepj-376" vertex="1">
          <mxGeometry width="30" height="30" as="geometry">
            <mxRectangle width="30" height="30" as="alternateBounds" />
          </mxGeometry>
        </mxCell>
        <mxCell id="MVDelJLo3RbLGT03wepj-378" value="&lt;span style=&quot;color: rgb(0, 0, 0); font-family: sans-serif; font-size: 13.12px; text-wrap-mode: nowrap; background-color: rgb(255, 255, 255);&quot;&gt;payId&lt;/span&gt;" style="shape=partialRectangle;connectable=0;fillColor=none;top=0;left=0;bottom=0;right=0;align=left;spacingLeft=6;fontStyle=5;overflow=hidden;whiteSpace=wrap;html=1;" parent="MVDelJLo3RbLGT03wepj-376" vertex="1">
          <mxGeometry x="30" width="152" height="30" as="geometry">
            <mxRectangle width="152" height="30" as="alternateBounds" />
          </mxGeometry>
        </mxCell>
        <mxCell id="MVDelJLo3RbLGT03wepj-379" value="" style="shape=tableRow;horizontal=0;startSize=0;swimlaneHead=0;swimlaneBody=0;fillColor=none;collapsible=0;dropTarget=0;points=[[0,0.5],[1,0.5]];portConstraint=eastwest;top=0;left=0;right=0;bottom=0;" parent="MVDelJLo3RbLGT03wepj-375" vertex="1">
          <mxGeometry y="60" width="182" height="20" as="geometry" />
        </mxCell>
        <mxCell id="MVDelJLo3RbLGT03wepj-380" value="FK" style="shape=partialRectangle;connectable=0;fillColor=none;top=0;left=0;bottom=0;right=0;editable=1;overflow=hidden;whiteSpace=wrap;html=1;" parent="MVDelJLo3RbLGT03wepj-379" vertex="1">
          <mxGeometry width="30" height="20" as="geometry">
            <mxRectangle width="30" height="20" as="alternateBounds" />
          </mxGeometry>
        </mxCell>
        <mxCell id="MVDelJLo3RbLGT03wepj-381" value="customerId" style="shape=partialRectangle;connectable=0;fillColor=none;top=0;left=0;bottom=0;right=0;align=left;spacingLeft=6;overflow=hidden;whiteSpace=wrap;html=1;" parent="MVDelJLo3RbLGT03wepj-379" vertex="1">
          <mxGeometry x="30" width="152" height="20" as="geometry">
            <mxRectangle width="152" height="20" as="alternateBounds" />
          </mxGeometry>
        </mxCell>
        <mxCell id="MVDelJLo3RbLGT03wepj-382" value="" style="shape=tableRow;horizontal=0;startSize=0;swimlaneHead=0;swimlaneBody=0;fillColor=none;collapsible=0;dropTarget=0;points=[[0,0.5],[1,0.5]];portConstraint=eastwest;top=0;left=0;right=0;bottom=0;" parent="MVDelJLo3RbLGT03wepj-375" vertex="1">
          <mxGeometry y="80" width="182" height="30" as="geometry" />
        </mxCell>
        <mxCell id="MVDelJLo3RbLGT03wepj-383" value="" style="shape=partialRectangle;connectable=0;fillColor=none;top=0;left=0;bottom=0;right=0;editable=1;overflow=hidden;whiteSpace=wrap;html=1;" parent="MVDelJLo3RbLGT03wepj-382" vertex="1">
          <mxGeometry width="30" height="30" as="geometry">
            <mxRectangle width="30" height="30" as="alternateBounds" />
          </mxGeometry>
        </mxCell>
        <mxCell id="MVDelJLo3RbLGT03wepj-384" value="recieved" style="shape=partialRectangle;connectable=0;fillColor=none;top=0;left=0;bottom=0;right=0;align=left;spacingLeft=6;overflow=hidden;whiteSpace=wrap;html=1;" parent="MVDelJLo3RbLGT03wepj-382" vertex="1">
          <mxGeometry x="30" width="152" height="30" as="geometry">
            <mxRectangle width="152" height="30" as="alternateBounds" />
          </mxGeometry>
        </mxCell>
        <mxCell id="MVDelJLo3RbLGT03wepj-385" value="" style="shape=tableRow;horizontal=0;startSize=0;swimlaneHead=0;swimlaneBody=0;fillColor=none;collapsible=0;dropTarget=0;points=[[0,0.5],[1,0.5]];portConstraint=eastwest;top=0;left=0;right=0;bottom=0;" parent="MVDelJLo3RbLGT03wepj-375" vertex="1">
          <mxGeometry y="110" width="182" height="30" as="geometry" />
        </mxCell>
        <mxCell id="MVDelJLo3RbLGT03wepj-386" value="" style="shape=partialRectangle;connectable=0;fillColor=none;top=0;left=0;bottom=0;right=0;editable=1;overflow=hidden;whiteSpace=wrap;html=1;" parent="MVDelJLo3RbLGT03wepj-385" vertex="1">
          <mxGeometry width="30" height="30" as="geometry">
            <mxRectangle width="30" height="30" as="alternateBounds" />
          </mxGeometry>
        </mxCell>
        <mxCell id="MVDelJLo3RbLGT03wepj-387" value="pending" style="shape=partialRectangle;connectable=0;fillColor=none;top=0;left=0;bottom=0;right=0;align=left;spacingLeft=6;overflow=hidden;whiteSpace=wrap;html=1;" parent="MVDelJLo3RbLGT03wepj-385" vertex="1">
          <mxGeometry x="30" width="152" height="30" as="geometry">
            <mxRectangle width="152" height="30" as="alternateBounds" />
          </mxGeometry>
        </mxCell>
        <mxCell id="MVDelJLo3RbLGT03wepj-398" value="stafPanel" style="shape=table;startSize=30;container=1;collapsible=1;childLayout=tableLayout;fixedRows=1;rowLines=0;fontStyle=1;align=center;resizeLast=1;html=1;" parent="1" vertex="1">
          <mxGeometry x="1274" y="787" width="182" height="140" as="geometry" />
        </mxCell>
        <mxCell id="MVDelJLo3RbLGT03wepj-399" value="" style="shape=tableRow;horizontal=0;startSize=0;swimlaneHead=0;swimlaneBody=0;fillColor=none;collapsible=0;dropTarget=0;points=[[0,0.5],[1,0.5]];portConstraint=eastwest;top=0;left=0;right=0;bottom=1;" parent="MVDelJLo3RbLGT03wepj-398" vertex="1">
          <mxGeometry y="30" width="182" height="30" as="geometry" />
        </mxCell>
        <mxCell id="MVDelJLo3RbLGT03wepj-400" value="PK" style="shape=partialRectangle;connectable=0;fillColor=none;top=0;left=0;bottom=0;right=0;fontStyle=1;overflow=hidden;whiteSpace=wrap;html=1;" parent="MVDelJLo3RbLGT03wepj-399" vertex="1">
          <mxGeometry width="30" height="30" as="geometry">
            <mxRectangle width="30" height="30" as="alternateBounds" />
          </mxGeometry>
        </mxCell>
        <mxCell id="MVDelJLo3RbLGT03wepj-401" value="stafPanelId" style="shape=partialRectangle;connectable=0;fillColor=none;top=0;left=0;bottom=0;right=0;align=left;spacingLeft=6;fontStyle=5;overflow=hidden;whiteSpace=wrap;html=1;" parent="MVDelJLo3RbLGT03wepj-399" vertex="1">
          <mxGeometry x="30" width="152" height="30" as="geometry">
            <mxRectangle width="152" height="30" as="alternateBounds" />
          </mxGeometry>
        </mxCell>
        <mxCell id="MVDelJLo3RbLGT03wepj-402" value="" style="shape=tableRow;horizontal=0;startSize=0;swimlaneHead=0;swimlaneBody=0;fillColor=none;collapsible=0;dropTarget=0;points=[[0,0.5],[1,0.5]];portConstraint=eastwest;top=0;left=0;right=0;bottom=0;" parent="MVDelJLo3RbLGT03wepj-398" vertex="1">
          <mxGeometry y="60" width="182" height="20" as="geometry" />
        </mxCell>
        <mxCell id="MVDelJLo3RbLGT03wepj-403" value="FK" style="shape=partialRectangle;connectable=0;fillColor=none;top=0;left=0;bottom=0;right=0;editable=1;overflow=hidden;whiteSpace=wrap;html=1;" parent="MVDelJLo3RbLGT03wepj-402" vertex="1">
          <mxGeometry width="30" height="20" as="geometry">
            <mxRectangle width="30" height="20" as="alternateBounds" />
          </mxGeometry>
        </mxCell>
        <mxCell id="MVDelJLo3RbLGT03wepj-404" value="userId" style="shape=partialRectangle;connectable=0;fillColor=none;top=0;left=0;bottom=0;right=0;align=left;spacingLeft=6;overflow=hidden;whiteSpace=wrap;html=1;" parent="MVDelJLo3RbLGT03wepj-402" vertex="1">
          <mxGeometry x="30" width="152" height="20" as="geometry">
            <mxRectangle width="152" height="20" as="alternateBounds" />
          </mxGeometry>
        </mxCell>
        <mxCell id="MVDelJLo3RbLGT03wepj-408" value="" style="shape=tableRow;horizontal=0;startSize=0;swimlaneHead=0;swimlaneBody=0;fillColor=none;collapsible=0;dropTarget=0;points=[[0,0.5],[1,0.5]];portConstraint=eastwest;top=0;left=0;right=0;bottom=0;" parent="MVDelJLo3RbLGT03wepj-398" vertex="1">
          <mxGeometry y="80" width="182" height="30" as="geometry" />
        </mxCell>
        <mxCell id="MVDelJLo3RbLGT03wepj-409" value="" style="shape=partialRectangle;connectable=0;fillColor=none;top=0;left=0;bottom=0;right=0;editable=1;overflow=hidden;whiteSpace=wrap;html=1;" parent="MVDelJLo3RbLGT03wepj-408" vertex="1">
          <mxGeometry width="30" height="30" as="geometry">
            <mxRectangle width="30" height="30" as="alternateBounds" />
          </mxGeometry>
        </mxCell>
        <mxCell id="MVDelJLo3RbLGT03wepj-410" value="credits" style="shape=partialRectangle;connectable=0;fillColor=none;top=0;left=0;bottom=0;right=0;align=left;spacingLeft=6;overflow=hidden;whiteSpace=wrap;html=1;" parent="MVDelJLo3RbLGT03wepj-408" vertex="1">
          <mxGeometry x="30" width="152" height="30" as="geometry">
            <mxRectangle width="152" height="30" as="alternateBounds" />
          </mxGeometry>
        </mxCell>
        <mxCell id="MVDelJLo3RbLGT03wepj-405" value="" style="shape=tableRow;horizontal=0;startSize=0;swimlaneHead=0;swimlaneBody=0;fillColor=none;collapsible=0;dropTarget=0;points=[[0,0.5],[1,0.5]];portConstraint=eastwest;top=0;left=0;right=0;bottom=0;" parent="MVDelJLo3RbLGT03wepj-398" vertex="1">
          <mxGeometry y="110" width="182" height="30" as="geometry" />
        </mxCell>
        <mxCell id="MVDelJLo3RbLGT03wepj-406" value="" style="shape=partialRectangle;connectable=0;fillColor=none;top=0;left=0;bottom=0;right=0;editable=1;overflow=hidden;whiteSpace=wrap;html=1;" parent="MVDelJLo3RbLGT03wepj-405" vertex="1">
          <mxGeometry width="30" height="30" as="geometry">
            <mxRectangle width="30" height="30" as="alternateBounds" />
          </mxGeometry>
        </mxCell>
        <mxCell id="MVDelJLo3RbLGT03wepj-407" value="remainingCredits" style="shape=partialRectangle;connectable=0;fillColor=none;top=0;left=0;bottom=0;right=0;align=left;spacingLeft=6;overflow=hidden;whiteSpace=wrap;html=1;" parent="MVDelJLo3RbLGT03wepj-405" vertex="1">
          <mxGeometry x="30" width="152" height="30" as="geometry">
            <mxRectangle width="152" height="30" as="alternateBounds" />
          </mxGeometry>
        </mxCell>
        <mxCell id="MVDelJLo3RbLGT03wepj-411" value="extPanel" style="shape=table;startSize=30;container=1;collapsible=1;childLayout=tableLayout;fixedRows=1;rowLines=0;fontStyle=1;align=center;resizeLast=1;html=1;" parent="1" vertex="1">
          <mxGeometry x="658" y="784" width="182" height="170" as="geometry" />
        </mxCell>
        <mxCell id="MVDelJLo3RbLGT03wepj-412" value="" style="shape=tableRow;horizontal=0;startSize=0;swimlaneHead=0;swimlaneBody=0;fillColor=none;collapsible=0;dropTarget=0;points=[[0,0.5],[1,0.5]];portConstraint=eastwest;top=0;left=0;right=0;bottom=1;" parent="MVDelJLo3RbLGT03wepj-411" vertex="1">
          <mxGeometry y="30" width="182" height="30" as="geometry" />
        </mxCell>
        <mxCell id="MVDelJLo3RbLGT03wepj-413" value="PK" style="shape=partialRectangle;connectable=0;fillColor=none;top=0;left=0;bottom=0;right=0;fontStyle=1;overflow=hidden;whiteSpace=wrap;html=1;" parent="MVDelJLo3RbLGT03wepj-412" vertex="1">
          <mxGeometry width="28" height="30" as="geometry">
            <mxRectangle width="28" height="30" as="alternateBounds" />
          </mxGeometry>
        </mxCell>
        <mxCell id="MVDelJLo3RbLGT03wepj-414" value="extPanelId" style="shape=partialRectangle;connectable=0;fillColor=none;top=0;left=0;bottom=0;right=0;align=left;spacingLeft=6;fontStyle=5;overflow=hidden;whiteSpace=wrap;html=1;" parent="MVDelJLo3RbLGT03wepj-412" vertex="1">
          <mxGeometry x="28" width="154" height="30" as="geometry">
            <mxRectangle width="154" height="30" as="alternateBounds" />
          </mxGeometry>
        </mxCell>
        <mxCell id="MVDelJLo3RbLGT03wepj-415" value="" style="shape=tableRow;horizontal=0;startSize=0;swimlaneHead=0;swimlaneBody=0;fillColor=none;collapsible=0;dropTarget=0;points=[[0,0.5],[1,0.5]];portConstraint=eastwest;top=0;left=0;right=0;bottom=0;" parent="MVDelJLo3RbLGT03wepj-411" vertex="1">
          <mxGeometry y="60" width="182" height="20" as="geometry" />
        </mxCell>
        <mxCell id="MVDelJLo3RbLGT03wepj-416" value="" style="shape=partialRectangle;connectable=0;fillColor=none;top=0;left=0;bottom=0;right=0;editable=1;overflow=hidden;whiteSpace=wrap;html=1;" parent="MVDelJLo3RbLGT03wepj-415" vertex="1">
          <mxGeometry width="28" height="20" as="geometry">
            <mxRectangle width="28" height="20" as="alternateBounds" />
          </mxGeometry>
        </mxCell>
        <mxCell id="MVDelJLo3RbLGT03wepj-417" value="&lt;span style=&quot;color: rgb(0, 0, 0); font-family: sans-serif; font-size: 13.12px; font-weight: 700; text-wrap-mode: nowrap; background-color: rgb(255, 255, 255);&quot;&gt;panelName&lt;/span&gt;" style="shape=partialRectangle;connectable=0;fillColor=none;top=0;left=0;bottom=0;right=0;align=left;spacingLeft=6;overflow=hidden;whiteSpace=wrap;html=1;" parent="MVDelJLo3RbLGT03wepj-415" vertex="1">
          <mxGeometry x="28" width="154" height="20" as="geometry">
            <mxRectangle width="154" height="20" as="alternateBounds" />
          </mxGeometry>
        </mxCell>
        <mxCell id="MVDelJLo3RbLGT03wepj-424" value="" style="shape=tableRow;horizontal=0;startSize=0;swimlaneHead=0;swimlaneBody=0;fillColor=none;collapsible=0;dropTarget=0;points=[[0,0.5],[1,0.5]];portConstraint=eastwest;top=0;left=0;right=0;bottom=0;" parent="MVDelJLo3RbLGT03wepj-411" vertex="1">
          <mxGeometry y="80" width="182" height="30" as="geometry" />
        </mxCell>
        <mxCell id="MVDelJLo3RbLGT03wepj-425" value="" style="shape=partialRectangle;connectable=0;fillColor=none;top=0;left=0;bottom=0;right=0;editable=1;overflow=hidden;whiteSpace=wrap;html=1;" parent="MVDelJLo3RbLGT03wepj-424" vertex="1">
          <mxGeometry width="28" height="30" as="geometry">
            <mxRectangle width="28" height="30" as="alternateBounds" />
          </mxGeometry>
        </mxCell>
        <mxCell id="MVDelJLo3RbLGT03wepj-426" value="&lt;span style=&quot;color: rgb(0, 0, 0); font-family: sans-serif; font-size: 13.12px; font-weight: 700; text-wrap-mode: nowrap; background-color: rgb(255, 255, 255);&quot;&gt;panelAddress&lt;/span&gt;" style="shape=partialRectangle;connectable=0;fillColor=none;top=0;left=0;bottom=0;right=0;align=left;spacingLeft=6;overflow=hidden;whiteSpace=wrap;html=1;" parent="MVDelJLo3RbLGT03wepj-424" vertex="1">
          <mxGeometry x="28" width="154" height="30" as="geometry">
            <mxRectangle width="154" height="30" as="alternateBounds" />
          </mxGeometry>
        </mxCell>
        <mxCell id="MVDelJLo3RbLGT03wepj-418" value="" style="shape=tableRow;horizontal=0;startSize=0;swimlaneHead=0;swimlaneBody=0;fillColor=none;collapsible=0;dropTarget=0;points=[[0,0.5],[1,0.5]];portConstraint=eastwest;top=0;left=0;right=0;bottom=0;" parent="MVDelJLo3RbLGT03wepj-411" vertex="1">
          <mxGeometry y="110" width="182" height="30" as="geometry" />
        </mxCell>
        <mxCell id="MVDelJLo3RbLGT03wepj-419" value="" style="shape=partialRectangle;connectable=0;fillColor=none;top=0;left=0;bottom=0;right=0;editable=1;overflow=hidden;whiteSpace=wrap;html=1;" parent="MVDelJLo3RbLGT03wepj-418" vertex="1">
          <mxGeometry width="28" height="30" as="geometry">
            <mxRectangle width="28" height="30" as="alternateBounds" />
          </mxGeometry>
        </mxCell>
        <mxCell id="MVDelJLo3RbLGT03wepj-420" value="&lt;span style=&quot;color: rgb(0, 0, 0); font-family: sans-serif; font-size: 13.12px; font-weight: 700; text-wrap-mode: nowrap; background-color: rgb(255, 255, 255);&quot;&gt;credits&lt;/span&gt;" style="shape=partialRectangle;connectable=0;fillColor=none;top=0;left=0;bottom=0;right=0;align=left;spacingLeft=6;overflow=hidden;whiteSpace=wrap;html=1;" parent="MVDelJLo3RbLGT03wepj-418" vertex="1">
          <mxGeometry x="28" width="154" height="30" as="geometry">
            <mxRectangle width="154" height="30" as="alternateBounds" />
          </mxGeometry>
        </mxCell>
        <mxCell id="MVDelJLo3RbLGT03wepj-421" value="" style="shape=tableRow;horizontal=0;startSize=0;swimlaneHead=0;swimlaneBody=0;fillColor=none;collapsible=0;dropTarget=0;points=[[0,0.5],[1,0.5]];portConstraint=eastwest;top=0;left=0;right=0;bottom=0;" parent="MVDelJLo3RbLGT03wepj-411" vertex="1">
          <mxGeometry y="140" width="182" height="30" as="geometry" />
        </mxCell>
        <mxCell id="MVDelJLo3RbLGT03wepj-422" value="" style="shape=partialRectangle;connectable=0;fillColor=none;top=0;left=0;bottom=0;right=0;editable=1;overflow=hidden;whiteSpace=wrap;html=1;" parent="MVDelJLo3RbLGT03wepj-421" vertex="1">
          <mxGeometry width="28" height="30" as="geometry">
            <mxRectangle width="28" height="30" as="alternateBounds" />
          </mxGeometry>
        </mxCell>
        <mxCell id="MVDelJLo3RbLGT03wepj-423" value="remainingCredits" style="shape=partialRectangle;connectable=0;fillColor=none;top=0;left=0;bottom=0;right=0;align=left;spacingLeft=6;overflow=hidden;whiteSpace=wrap;html=1;" parent="MVDelJLo3RbLGT03wepj-421" vertex="1">
          <mxGeometry x="28" width="154" height="30" as="geometry">
            <mxRectangle width="154" height="30" as="alternateBounds" />
          </mxGeometry>
        </mxCell>
        <mxCell id="MVDelJLo3RbLGT03wepj-427" value="lc" style="shape=table;startSize=30;container=1;collapsible=1;childLayout=tableLayout;fixedRows=1;rowLines=0;fontStyle=1;align=center;resizeLast=1;html=1;" parent="1" vertex="1">
          <mxGeometry x="658" y="1274" width="182" height="140" as="geometry" />
        </mxCell>
        <mxCell id="MVDelJLo3RbLGT03wepj-428" value="" style="shape=tableRow;horizontal=0;startSize=0;swimlaneHead=0;swimlaneBody=0;fillColor=none;collapsible=0;dropTarget=0;points=[[0,0.5],[1,0.5]];portConstraint=eastwest;top=0;left=0;right=0;bottom=1;" parent="MVDelJLo3RbLGT03wepj-427" vertex="1">
          <mxGeometry y="30" width="182" height="30" as="geometry" />
        </mxCell>
        <mxCell id="MVDelJLo3RbLGT03wepj-429" value="PK" style="shape=partialRectangle;connectable=0;fillColor=none;top=0;left=0;bottom=0;right=0;fontStyle=1;overflow=hidden;whiteSpace=wrap;html=1;" parent="MVDelJLo3RbLGT03wepj-428" vertex="1">
          <mxGeometry width="30" height="30" as="geometry">
            <mxRectangle width="30" height="30" as="alternateBounds" />
          </mxGeometry>
        </mxCell>
        <mxCell id="MVDelJLo3RbLGT03wepj-430" value="id" style="shape=partialRectangle;connectable=0;fillColor=none;top=0;left=0;bottom=0;right=0;align=left;spacingLeft=6;fontStyle=5;overflow=hidden;whiteSpace=wrap;html=1;" parent="MVDelJLo3RbLGT03wepj-428" vertex="1">
          <mxGeometry x="30" width="152" height="30" as="geometry">
            <mxRectangle width="152" height="30" as="alternateBounds" />
          </mxGeometry>
        </mxCell>
        <mxCell id="MVDelJLo3RbLGT03wepj-431" value="" style="shape=tableRow;horizontal=0;startSize=0;swimlaneHead=0;swimlaneBody=0;fillColor=none;collapsible=0;dropTarget=0;points=[[0,0.5],[1,0.5]];portConstraint=eastwest;top=0;left=0;right=0;bottom=0;" parent="MVDelJLo3RbLGT03wepj-427" vertex="1">
          <mxGeometry y="60" width="182" height="20" as="geometry" />
        </mxCell>
        <mxCell id="MVDelJLo3RbLGT03wepj-432" value="FK" style="shape=partialRectangle;connectable=0;fillColor=none;top=0;left=0;bottom=0;right=0;editable=1;overflow=hidden;whiteSpace=wrap;html=1;" parent="MVDelJLo3RbLGT03wepj-431" vertex="1">
          <mxGeometry width="30" height="20" as="geometry">
            <mxRectangle width="30" height="20" as="alternateBounds" />
          </mxGeometry>
        </mxCell>
        <mxCell id="MVDelJLo3RbLGT03wepj-433" value="custoemrIds" style="shape=partialRectangle;connectable=0;fillColor=none;top=0;left=0;bottom=0;right=0;align=left;spacingLeft=6;overflow=hidden;whiteSpace=wrap;html=1;" parent="MVDelJLo3RbLGT03wepj-431" vertex="1">
          <mxGeometry x="30" width="152" height="20" as="geometry">
            <mxRectangle width="152" height="20" as="alternateBounds" />
          </mxGeometry>
        </mxCell>
        <mxCell id="MVDelJLo3RbLGT03wepj-434" value="" style="shape=tableRow;horizontal=0;startSize=0;swimlaneHead=0;swimlaneBody=0;fillColor=none;collapsible=0;dropTarget=0;points=[[0,0.5],[1,0.5]];portConstraint=eastwest;top=0;left=0;right=0;bottom=0;" parent="MVDelJLo3RbLGT03wepj-427" vertex="1">
          <mxGeometry y="80" width="182" height="30" as="geometry" />
        </mxCell>
        <mxCell id="MVDelJLo3RbLGT03wepj-435" value="" style="shape=partialRectangle;connectable=0;fillColor=none;top=0;left=0;bottom=0;right=0;editable=1;overflow=hidden;whiteSpace=wrap;html=1;" parent="MVDelJLo3RbLGT03wepj-434" vertex="1">
          <mxGeometry width="30" height="30" as="geometry">
            <mxRectangle width="30" height="30" as="alternateBounds" />
          </mxGeometry>
        </mxCell>
        <mxCell id="MVDelJLo3RbLGT03wepj-436" value="phone_number" style="shape=partialRectangle;connectable=0;fillColor=none;top=0;left=0;bottom=0;right=0;align=left;spacingLeft=6;overflow=hidden;whiteSpace=wrap;html=1;" parent="MVDelJLo3RbLGT03wepj-434" vertex="1">
          <mxGeometry x="30" width="152" height="30" as="geometry">
            <mxRectangle width="152" height="30" as="alternateBounds" />
          </mxGeometry>
        </mxCell>
        <mxCell id="MVDelJLo3RbLGT03wepj-437" value="" style="shape=tableRow;horizontal=0;startSize=0;swimlaneHead=0;swimlaneBody=0;fillColor=none;collapsible=0;dropTarget=0;points=[[0,0.5],[1,0.5]];portConstraint=eastwest;top=0;left=0;right=0;bottom=0;" parent="MVDelJLo3RbLGT03wepj-427" vertex="1">
          <mxGeometry y="110" width="182" height="30" as="geometry" />
        </mxCell>
        <mxCell id="MVDelJLo3RbLGT03wepj-438" value="" style="shape=partialRectangle;connectable=0;fillColor=none;top=0;left=0;bottom=0;right=0;editable=1;overflow=hidden;whiteSpace=wrap;html=1;" parent="MVDelJLo3RbLGT03wepj-437" vertex="1">
          <mxGeometry width="30" height="30" as="geometry">
            <mxRectangle width="30" height="30" as="alternateBounds" />
          </mxGeometry>
        </mxCell>
        <mxCell id="MVDelJLo3RbLGT03wepj-439" value="percentage" style="shape=partialRectangle;connectable=0;fillColor=none;top=0;left=0;bottom=0;right=0;align=left;spacingLeft=6;overflow=hidden;whiteSpace=wrap;html=1;" parent="MVDelJLo3RbLGT03wepj-437" vertex="1">
          <mxGeometry x="30" width="152" height="30" as="geometry">
            <mxRectangle width="152" height="30" as="alternateBounds" />
          </mxGeometry>
        </mxCell>
        <mxCell id="MVDelJLo3RbLGT03wepj-440" value="credits" style="shape=table;startSize=30;container=1;collapsible=1;childLayout=tableLayout;fixedRows=1;rowLines=0;fontStyle=1;align=center;resizeLast=1;html=1;" parent="1" vertex="1">
          <mxGeometry x="658" y="532" width="182" height="140" as="geometry" />
        </mxCell>
        <mxCell id="MVDelJLo3RbLGT03wepj-441" value="" style="shape=tableRow;horizontal=0;startSize=0;swimlaneHead=0;swimlaneBody=0;fillColor=none;collapsible=0;dropTarget=0;points=[[0,0.5],[1,0.5]];portConstraint=eastwest;top=0;left=0;right=0;bottom=1;" parent="MVDelJLo3RbLGT03wepj-440" vertex="1">
          <mxGeometry y="30" width="182" height="30" as="geometry" />
        </mxCell>
        <mxCell id="MVDelJLo3RbLGT03wepj-442" value="PK" style="shape=partialRectangle;connectable=0;fillColor=none;top=0;left=0;bottom=0;right=0;fontStyle=1;overflow=hidden;whiteSpace=wrap;html=1;" parent="MVDelJLo3RbLGT03wepj-441" vertex="1">
          <mxGeometry width="30" height="30" as="geometry">
            <mxRectangle width="30" height="30" as="alternateBounds" />
          </mxGeometry>
        </mxCell>
        <mxCell id="MVDelJLo3RbLGT03wepj-443" value="&lt;span style=&quot;color: rgb(0, 0, 0); font-family: sans-serif; font-size: 13.12px; text-wrap-mode: nowrap; background-color: rgb(255, 255, 255);&quot;&gt;creditAi&lt;/span&gt;" style="shape=partialRectangle;connectable=0;fillColor=none;top=0;left=0;bottom=0;right=0;align=left;spacingLeft=6;fontStyle=5;overflow=hidden;whiteSpace=wrap;html=1;" parent="MVDelJLo3RbLGT03wepj-441" vertex="1">
          <mxGeometry x="30" width="152" height="30" as="geometry">
            <mxRectangle width="152" height="30" as="alternateBounds" />
          </mxGeometry>
        </mxCell>
        <mxCell id="MVDelJLo3RbLGT03wepj-444" value="" style="shape=tableRow;horizontal=0;startSize=0;swimlaneHead=0;swimlaneBody=0;fillColor=none;collapsible=0;dropTarget=0;points=[[0,0.5],[1,0.5]];portConstraint=eastwest;top=0;left=0;right=0;bottom=0;" parent="MVDelJLo3RbLGT03wepj-440" vertex="1">
          <mxGeometry y="60" width="182" height="20" as="geometry" />
        </mxCell>
        <mxCell id="MVDelJLo3RbLGT03wepj-445" value="FK" style="shape=partialRectangle;connectable=0;fillColor=none;top=0;left=0;bottom=0;right=0;editable=1;overflow=hidden;whiteSpace=wrap;html=1;" parent="MVDelJLo3RbLGT03wepj-444" vertex="1">
          <mxGeometry width="30" height="20" as="geometry">
            <mxRectangle width="30" height="20" as="alternateBounds" />
          </mxGeometry>
        </mxCell>
        <mxCell id="MVDelJLo3RbLGT03wepj-446" value="&lt;span style=&quot;color: rgb(0, 0, 0); font-family: sans-serif; font-size: 13.12px; font-weight: 700; text-wrap-mode: nowrap; background-color: rgb(255, 255, 255);&quot;&gt;userId&amp;nbsp;&lt;/span&gt;" style="shape=partialRectangle;connectable=0;fillColor=none;top=0;left=0;bottom=0;right=0;align=left;spacingLeft=6;overflow=hidden;whiteSpace=wrap;html=1;" parent="MVDelJLo3RbLGT03wepj-444" vertex="1">
          <mxGeometry x="30" width="152" height="20" as="geometry">
            <mxRectangle width="152" height="20" as="alternateBounds" />
          </mxGeometry>
        </mxCell>
        <mxCell id="MVDelJLo3RbLGT03wepj-447" value="" style="shape=tableRow;horizontal=0;startSize=0;swimlaneHead=0;swimlaneBody=0;fillColor=none;collapsible=0;dropTarget=0;points=[[0,0.5],[1,0.5]];portConstraint=eastwest;top=0;left=0;right=0;bottom=0;" parent="MVDelJLo3RbLGT03wepj-440" vertex="1">
          <mxGeometry y="80" width="182" height="30" as="geometry" />
        </mxCell>
        <mxCell id="MVDelJLo3RbLGT03wepj-448" value="" style="shape=partialRectangle;connectable=0;fillColor=none;top=0;left=0;bottom=0;right=0;editable=1;overflow=hidden;whiteSpace=wrap;html=1;" parent="MVDelJLo3RbLGT03wepj-447" vertex="1">
          <mxGeometry width="30" height="30" as="geometry">
            <mxRectangle width="30" height="30" as="alternateBounds" />
          </mxGeometry>
        </mxCell>
        <mxCell id="MVDelJLo3RbLGT03wepj-449" value="&lt;span style=&quot;color: rgb(0, 0, 0); font-family: sans-serif; font-size: 13.12px; font-weight: 700; text-wrap-mode: nowrap; background-color: rgb(255, 255, 255);&quot;&gt;creditAmount&lt;/span&gt;" style="shape=partialRectangle;connectable=0;fillColor=none;top=0;left=0;bottom=0;right=0;align=left;spacingLeft=6;overflow=hidden;whiteSpace=wrap;html=1;" parent="MVDelJLo3RbLGT03wepj-447" vertex="1">
          <mxGeometry x="30" width="152" height="30" as="geometry">
            <mxRectangle width="152" height="30" as="alternateBounds" />
          </mxGeometry>
        </mxCell>
        <mxCell id="MVDelJLo3RbLGT03wepj-450" value="" style="shape=tableRow;horizontal=0;startSize=0;swimlaneHead=0;swimlaneBody=0;fillColor=none;collapsible=0;dropTarget=0;points=[[0,0.5],[1,0.5]];portConstraint=eastwest;top=0;left=0;right=0;bottom=0;" parent="MVDelJLo3RbLGT03wepj-440" vertex="1">
          <mxGeometry y="110" width="182" height="30" as="geometry" />
        </mxCell>
        <mxCell id="MVDelJLo3RbLGT03wepj-451" value="" style="shape=partialRectangle;connectable=0;fillColor=none;top=0;left=0;bottom=0;right=0;editable=1;overflow=hidden;whiteSpace=wrap;html=1;" parent="MVDelJLo3RbLGT03wepj-450" vertex="1">
          <mxGeometry width="30" height="30" as="geometry">
            <mxRectangle width="30" height="30" as="alternateBounds" />
          </mxGeometry>
        </mxCell>
        <mxCell id="MVDelJLo3RbLGT03wepj-452" value="&lt;span style=&quot;color: rgb(0, 0, 0); font-family: sans-serif; font-size: 13.12px; font-weight: 700; text-wrap-mode: nowrap; background-color: rgb(255, 255, 255);&quot;&gt;creditDetail&lt;/span&gt;" style="shape=partialRectangle;connectable=0;fillColor=none;top=0;left=0;bottom=0;right=0;align=left;spacingLeft=6;overflow=hidden;whiteSpace=wrap;html=1;" parent="MVDelJLo3RbLGT03wepj-450" vertex="1">
          <mxGeometry x="30" width="152" height="30" as="geometry">
            <mxRectangle width="152" height="30" as="alternateBounds" />
          </mxGeometry>
        </mxCell>
        <mxCell id="MVDelJLo3RbLGT03wepj-453" value="debits" style="shape=table;startSize=30;container=1;collapsible=1;childLayout=tableLayout;fixedRows=1;rowLines=0;fontStyle=1;align=center;resizeLast=1;html=1;" parent="1" vertex="1">
          <mxGeometry x="966" y="532" width="168" height="140" as="geometry" />
        </mxCell>
        <mxCell id="MVDelJLo3RbLGT03wepj-454" value="" style="shape=tableRow;horizontal=0;startSize=0;swimlaneHead=0;swimlaneBody=0;fillColor=none;collapsible=0;dropTarget=0;points=[[0,0.5],[1,0.5]];portConstraint=eastwest;top=0;left=0;right=0;bottom=1;" parent="MVDelJLo3RbLGT03wepj-453" vertex="1">
          <mxGeometry y="30" width="168" height="30" as="geometry" />
        </mxCell>
        <mxCell id="MVDelJLo3RbLGT03wepj-455" value="PK" style="shape=partialRectangle;connectable=0;fillColor=none;top=0;left=0;bottom=0;right=0;fontStyle=1;overflow=hidden;whiteSpace=wrap;html=1;" parent="MVDelJLo3RbLGT03wepj-454" vertex="1">
          <mxGeometry width="30" height="30" as="geometry">
            <mxRectangle width="30" height="30" as="alternateBounds" />
          </mxGeometry>
        </mxCell>
        <mxCell id="MVDelJLo3RbLGT03wepj-456" value="&lt;span style=&quot;color: rgb(0, 0, 0); font-family: sans-serif; font-size: 13.12px; text-wrap-mode: nowrap; background-color: rgb(255, 255, 255);&quot;&gt;debitAi&lt;/span&gt;" style="shape=partialRectangle;connectable=0;fillColor=none;top=0;left=0;bottom=0;right=0;align=left;spacingLeft=6;fontStyle=5;overflow=hidden;whiteSpace=wrap;html=1;" parent="MVDelJLo3RbLGT03wepj-454" vertex="1">
          <mxGeometry x="30" width="138" height="30" as="geometry">
            <mxRectangle width="138" height="30" as="alternateBounds" />
          </mxGeometry>
        </mxCell>
        <mxCell id="MVDelJLo3RbLGT03wepj-457" value="" style="shape=tableRow;horizontal=0;startSize=0;swimlaneHead=0;swimlaneBody=0;fillColor=none;collapsible=0;dropTarget=0;points=[[0,0.5],[1,0.5]];portConstraint=eastwest;top=0;left=0;right=0;bottom=0;" parent="MVDelJLo3RbLGT03wepj-453" vertex="1">
          <mxGeometry y="60" width="168" height="20" as="geometry" />
        </mxCell>
        <mxCell id="MVDelJLo3RbLGT03wepj-458" value="FK" style="shape=partialRectangle;connectable=0;fillColor=none;top=0;left=0;bottom=0;right=0;editable=1;overflow=hidden;whiteSpace=wrap;html=1;" parent="MVDelJLo3RbLGT03wepj-457" vertex="1">
          <mxGeometry width="30" height="20" as="geometry">
            <mxRectangle width="30" height="20" as="alternateBounds" />
          </mxGeometry>
        </mxCell>
        <mxCell id="MVDelJLo3RbLGT03wepj-459" value="&lt;span style=&quot;color: rgb(0, 0, 0); font-family: sans-serif; font-size: 13.12px; font-weight: 700; text-wrap-mode: nowrap; background-color: rgb(255, 255, 255);&quot;&gt;userId&lt;/span&gt;" style="shape=partialRectangle;connectable=0;fillColor=none;top=0;left=0;bottom=0;right=0;align=left;spacingLeft=6;overflow=hidden;whiteSpace=wrap;html=1;" parent="MVDelJLo3RbLGT03wepj-457" vertex="1">
          <mxGeometry x="30" width="138" height="20" as="geometry">
            <mxRectangle width="138" height="20" as="alternateBounds" />
          </mxGeometry>
        </mxCell>
        <mxCell id="MVDelJLo3RbLGT03wepj-460" value="" style="shape=tableRow;horizontal=0;startSize=0;swimlaneHead=0;swimlaneBody=0;fillColor=none;collapsible=0;dropTarget=0;points=[[0,0.5],[1,0.5]];portConstraint=eastwest;top=0;left=0;right=0;bottom=0;" parent="MVDelJLo3RbLGT03wepj-453" vertex="1">
          <mxGeometry y="80" width="168" height="30" as="geometry" />
        </mxCell>
        <mxCell id="MVDelJLo3RbLGT03wepj-461" value="" style="shape=partialRectangle;connectable=0;fillColor=none;top=0;left=0;bottom=0;right=0;editable=1;overflow=hidden;whiteSpace=wrap;html=1;" parent="MVDelJLo3RbLGT03wepj-460" vertex="1">
          <mxGeometry width="30" height="30" as="geometry">
            <mxRectangle width="30" height="30" as="alternateBounds" />
          </mxGeometry>
        </mxCell>
        <mxCell id="MVDelJLo3RbLGT03wepj-462" value="&lt;span style=&quot;color: rgb(0, 0, 0); font-family: sans-serif; font-size: 13.12px; font-weight: 700; text-wrap-mode: nowrap; background-color: rgb(255, 255, 255);&quot;&gt;creditAmount&lt;/span&gt;" style="shape=partialRectangle;connectable=0;fillColor=none;top=0;left=0;bottom=0;right=0;align=left;spacingLeft=6;overflow=hidden;whiteSpace=wrap;html=1;" parent="MVDelJLo3RbLGT03wepj-460" vertex="1">
          <mxGeometry x="30" width="138" height="30" as="geometry">
            <mxRectangle width="138" height="30" as="alternateBounds" />
          </mxGeometry>
        </mxCell>
        <mxCell id="MVDelJLo3RbLGT03wepj-463" value="" style="shape=tableRow;horizontal=0;startSize=0;swimlaneHead=0;swimlaneBody=0;fillColor=none;collapsible=0;dropTarget=0;points=[[0,0.5],[1,0.5]];portConstraint=eastwest;top=0;left=0;right=0;bottom=0;" parent="MVDelJLo3RbLGT03wepj-453" vertex="1">
          <mxGeometry y="110" width="168" height="30" as="geometry" />
        </mxCell>
        <mxCell id="MVDelJLo3RbLGT03wepj-464" value="" style="shape=partialRectangle;connectable=0;fillColor=none;top=0;left=0;bottom=0;right=0;editable=1;overflow=hidden;whiteSpace=wrap;html=1;" parent="MVDelJLo3RbLGT03wepj-463" vertex="1">
          <mxGeometry width="30" height="30" as="geometry">
            <mxRectangle width="30" height="30" as="alternateBounds" />
          </mxGeometry>
        </mxCell>
        <mxCell id="MVDelJLo3RbLGT03wepj-465" value="&lt;span style=&quot;color: rgb(0, 0, 0); font-family: sans-serif; font-size: 13.12px; font-weight: 700; text-wrap-mode: nowrap; background-color: rgb(255, 255, 255);&quot;&gt;creditDetail&lt;/span&gt;" style="shape=partialRectangle;connectable=0;fillColor=none;top=0;left=0;bottom=0;right=0;align=left;spacingLeft=6;overflow=hidden;whiteSpace=wrap;html=1;" parent="MVDelJLo3RbLGT03wepj-463" vertex="1">
          <mxGeometry x="30" width="138" height="30" as="geometry">
            <mxRectangle width="138" height="30" as="alternateBounds" />
          </mxGeometry>
        </mxCell>
        <mxCell id="MVDelJLo3RbLGT03wepj-466" value="stocks" style="shape=table;startSize=30;container=1;collapsible=1;childLayout=tableLayout;fixedRows=1;rowLines=0;fontStyle=1;align=center;resizeLast=1;html=1;labelBackgroundColor=none;" parent="1" vertex="1">
          <mxGeometry x="1274" y="532" width="168" height="196" as="geometry" />
        </mxCell>
        <mxCell id="MVDelJLo3RbLGT03wepj-467" value="" style="shape=tableRow;horizontal=0;startSize=0;swimlaneHead=0;swimlaneBody=0;fillColor=none;collapsible=0;dropTarget=0;points=[[0,0.5],[1,0.5]];portConstraint=eastwest;top=0;left=0;right=0;bottom=1;" parent="MVDelJLo3RbLGT03wepj-466" vertex="1">
          <mxGeometry y="30" width="168" height="30" as="geometry" />
        </mxCell>
        <mxCell id="MVDelJLo3RbLGT03wepj-468" value="PK" style="shape=partialRectangle;connectable=0;fillColor=none;top=0;left=0;bottom=0;right=0;fontStyle=1;overflow=hidden;whiteSpace=wrap;html=1;" parent="MVDelJLo3RbLGT03wepj-467" vertex="1">
          <mxGeometry width="30" height="30" as="geometry">
            <mxRectangle width="30" height="30" as="alternateBounds" />
          </mxGeometry>
        </mxCell>
        <mxCell id="MVDelJLo3RbLGT03wepj-469" value="&lt;span style=&quot;color: rgb(0, 0, 0); font-family: sans-serif; font-size: 13.12px; text-wrap-mode: nowrap; background-color: rgb(255, 255, 255);&quot;&gt;itemId&lt;/span&gt;" style="shape=partialRectangle;connectable=0;fillColor=none;top=0;left=0;bottom=0;right=0;align=left;spacingLeft=6;fontStyle=5;overflow=hidden;whiteSpace=wrap;html=1;" parent="MVDelJLo3RbLGT03wepj-467" vertex="1">
          <mxGeometry x="30" width="138" height="30" as="geometry">
            <mxRectangle width="138" height="30" as="alternateBounds" />
          </mxGeometry>
        </mxCell>
        <mxCell id="MVDelJLo3RbLGT03wepj-470" value="" style="shape=tableRow;horizontal=0;startSize=0;swimlaneHead=0;swimlaneBody=0;fillColor=none;collapsible=0;dropTarget=0;points=[[0,0.5],[1,0.5]];portConstraint=eastwest;top=0;left=0;right=0;bottom=0;" parent="MVDelJLo3RbLGT03wepj-466" vertex="1">
          <mxGeometry y="60" width="168" height="20" as="geometry" />
        </mxCell>
        <mxCell id="MVDelJLo3RbLGT03wepj-471" value="FK" style="shape=partialRectangle;connectable=0;fillColor=none;top=0;left=0;bottom=0;right=0;editable=1;overflow=hidden;whiteSpace=wrap;html=1;" parent="MVDelJLo3RbLGT03wepj-470" vertex="1">
          <mxGeometry width="30" height="20" as="geometry">
            <mxRectangle width="30" height="20" as="alternateBounds" />
          </mxGeometry>
        </mxCell>
        <mxCell id="MVDelJLo3RbLGT03wepj-472" value="&lt;span style=&quot;color: rgb(0, 0, 0); font-family: sans-serif; font-size: 13.12px; font-weight: 700; text-wrap-mode: nowrap; background-color: rgb(255, 255, 255);&quot;&gt;userId&lt;/span&gt;" style="shape=partialRectangle;connectable=0;fillColor=none;top=0;left=0;bottom=0;right=0;align=left;spacingLeft=6;overflow=hidden;whiteSpace=wrap;html=1;" parent="MVDelJLo3RbLGT03wepj-470" vertex="1">
          <mxGeometry x="30" width="138" height="20" as="geometry">
            <mxRectangle width="138" height="20" as="alternateBounds" />
          </mxGeometry>
        </mxCell>
        <mxCell id="MVDelJLo3RbLGT03wepj-473" value="" style="shape=tableRow;horizontal=0;startSize=0;swimlaneHead=0;swimlaneBody=0;fillColor=none;collapsible=0;dropTarget=0;points=[[0,0.5],[1,0.5]];portConstraint=eastwest;top=0;left=0;right=0;bottom=0;" parent="MVDelJLo3RbLGT03wepj-466" vertex="1">
          <mxGeometry y="80" width="168" height="30" as="geometry" />
        </mxCell>
        <mxCell id="MVDelJLo3RbLGT03wepj-474" value="" style="shape=partialRectangle;connectable=0;fillColor=none;top=0;left=0;bottom=0;right=0;editable=1;overflow=hidden;whiteSpace=wrap;html=1;" parent="MVDelJLo3RbLGT03wepj-473" vertex="1">
          <mxGeometry width="30" height="30" as="geometry">
            <mxRectangle width="30" height="30" as="alternateBounds" />
          </mxGeometry>
        </mxCell>
        <mxCell id="MVDelJLo3RbLGT03wepj-475" value="&lt;font face=&quot;sans-serif&quot;&gt;&lt;span style=&quot;font-size: 13.12px;&quot;&gt;ItemName&lt;/span&gt;&lt;/font&gt;" style="shape=partialRectangle;connectable=0;fillColor=none;top=0;left=0;bottom=0;right=0;align=left;spacingLeft=6;overflow=hidden;whiteSpace=wrap;html=1;fontColor=light-dark(default, #ffffff);" parent="MVDelJLo3RbLGT03wepj-473" vertex="1">
          <mxGeometry x="30" width="138" height="30" as="geometry">
            <mxRectangle width="138" height="30" as="alternateBounds" />
          </mxGeometry>
        </mxCell>
        <mxCell id="MVDelJLo3RbLGT03wepj-479" value="" style="shape=tableRow;horizontal=0;startSize=0;swimlaneHead=0;swimlaneBody=0;fillColor=none;collapsible=0;dropTarget=0;points=[[0,0.5],[1,0.5]];portConstraint=eastwest;top=0;left=0;right=0;bottom=0;" parent="MVDelJLo3RbLGT03wepj-466" vertex="1">
          <mxGeometry y="110" width="168" height="30" as="geometry" />
        </mxCell>
        <mxCell id="MVDelJLo3RbLGT03wepj-480" value="" style="shape=partialRectangle;connectable=0;fillColor=none;top=0;left=0;bottom=0;right=0;editable=1;overflow=hidden;whiteSpace=wrap;html=1;" parent="MVDelJLo3RbLGT03wepj-479" vertex="1">
          <mxGeometry width="30" height="30" as="geometry">
            <mxRectangle width="30" height="30" as="alternateBounds" />
          </mxGeometry>
        </mxCell>
        <mxCell id="MVDelJLo3RbLGT03wepj-481" value="itemDetails" style="shape=partialRectangle;connectable=0;fillColor=none;top=0;left=0;bottom=0;right=0;align=left;spacingLeft=6;overflow=hidden;whiteSpace=wrap;html=1;" parent="MVDelJLo3RbLGT03wepj-479" vertex="1">
          <mxGeometry x="30" width="138" height="30" as="geometry">
            <mxRectangle width="138" height="30" as="alternateBounds" />
          </mxGeometry>
        </mxCell>
        <mxCell id="MVDelJLo3RbLGT03wepj-482" value="" style="shape=tableRow;horizontal=0;startSize=0;swimlaneHead=0;swimlaneBody=0;fillColor=none;collapsible=0;dropTarget=0;points=[[0,0.5],[1,0.5]];portConstraint=eastwest;top=0;left=0;right=0;bottom=0;" parent="MVDelJLo3RbLGT03wepj-466" vertex="1">
          <mxGeometry y="140" width="168" height="28" as="geometry" />
        </mxCell>
        <mxCell id="MVDelJLo3RbLGT03wepj-483" value="" style="shape=partialRectangle;connectable=0;fillColor=none;top=0;left=0;bottom=0;right=0;editable=1;overflow=hidden;whiteSpace=wrap;html=1;" parent="MVDelJLo3RbLGT03wepj-482" vertex="1">
          <mxGeometry width="30" height="28" as="geometry">
            <mxRectangle width="30" height="28" as="alternateBounds" />
          </mxGeometry>
        </mxCell>
        <mxCell id="MVDelJLo3RbLGT03wepj-484" value="itemQnt" style="shape=partialRectangle;connectable=0;fillColor=none;top=0;left=0;bottom=0;right=0;align=left;spacingLeft=6;overflow=hidden;whiteSpace=wrap;html=1;" parent="MVDelJLo3RbLGT03wepj-482" vertex="1">
          <mxGeometry x="30" width="138" height="28" as="geometry">
            <mxRectangle width="138" height="28" as="alternateBounds" />
          </mxGeometry>
        </mxCell>
        <mxCell id="MVDelJLo3RbLGT03wepj-476" value="" style="shape=tableRow;horizontal=0;startSize=0;swimlaneHead=0;swimlaneBody=0;fillColor=none;collapsible=0;dropTarget=0;points=[[0,0.5],[1,0.5]];portConstraint=eastwest;top=0;left=0;right=0;bottom=0;" parent="MVDelJLo3RbLGT03wepj-466" vertex="1">
          <mxGeometry y="168" width="168" height="28" as="geometry" />
        </mxCell>
        <mxCell id="MVDelJLo3RbLGT03wepj-477" value="" style="shape=partialRectangle;connectable=0;fillColor=none;top=0;left=0;bottom=0;right=0;editable=1;overflow=hidden;whiteSpace=wrap;html=1;" parent="MVDelJLo3RbLGT03wepj-476" vertex="1">
          <mxGeometry width="30" height="28" as="geometry">
            <mxRectangle width="30" height="28" as="alternateBounds" />
          </mxGeometry>
        </mxCell>
        <mxCell id="MVDelJLo3RbLGT03wepj-478" value="&lt;span style=&quot;color: rgb(0, 0, 0); font-family: sans-serif; font-size: 13.12px; font-weight: 700; text-wrap-mode: nowrap; background-color: rgb(255, 255, 255);&quot;&gt;itmPrice&lt;/span&gt;" style="shape=partialRectangle;connectable=0;fillColor=none;top=0;left=0;bottom=0;right=0;align=left;spacingLeft=6;overflow=hidden;whiteSpace=wrap;html=1;" parent="MVDelJLo3RbLGT03wepj-476" vertex="1">
          <mxGeometry x="30" width="138" height="28" as="geometry">
            <mxRectangle width="138" height="28" as="alternateBounds" />
          </mxGeometry>
        </mxCell>
        <mxCell id="MVDelJLo3RbLGT03wepj-492" value="" style="edgeStyle=entityRelationEdgeStyle;fontSize=12;html=1;endArrow=ERzeroToMany;startArrow=ERmandOne;rounded=0;entryX=0.006;entryY=0.743;entryDx=0;entryDy=0;entryPerimeter=0;" parent="1" source="MVDelJLo3RbLGT03wepj-104" target="MVDelJLo3RbLGT03wepj-402" edge="1">
          <mxGeometry width="100" height="100" relative="1" as="geometry">
            <mxPoint x="1134" y="842" as="sourcePoint" />
            <mxPoint x="1234" y="742" as="targetPoint" />
          </mxGeometry>
        </mxCell>
        <mxCell id="dCpKo4cYCezhhlU8Z5YK-1" value="" style="edgeStyle=elbowEdgeStyle;fontSize=12;html=1;endArrow=ERzeroToMany;startArrow=ERmandOne;rounded=0;exitX=0;exitY=0.5;exitDx=0;exitDy=0;entryX=0;entryY=0.5;entryDx=0;entryDy=0;" edge="1" parent="1" source="MVDelJLo3RbLGT03wepj-104" target="MVDelJLo3RbLGT03wepj-457">
          <mxGeometry width="100" height="100" relative="1" as="geometry">
            <mxPoint x="1008" y="742" as="sourcePoint" />
            <mxPoint x="1137" y="772" as="targetPoint" />
            <Array as="points">
              <mxPoint x="938" y="714" />
            </Array>
          </mxGeometry>
        </mxCell>
        <mxCell id="dCpKo4cYCezhhlU8Z5YK-2" value="" style="edgeStyle=elbowEdgeStyle;fontSize=12;html=1;endArrow=ERzeroToMany;startArrow=ERmandOne;rounded=0;exitX=0.003;exitY=0.979;exitDx=0;exitDy=0;exitPerimeter=0;" edge="1" parent="1" source="MVDelJLo3RbLGT03wepj-104" target="MVDelJLo3RbLGT03wepj-444">
          <mxGeometry width="100" height="100" relative="1" as="geometry">
            <mxPoint x="962.76" y="849.25" as="sourcePoint" />
            <mxPoint x="839.9999999999998" y="602" as="targetPoint" />
            <Array as="points">
              <mxPoint x="896" y="784" />
            </Array>
          </mxGeometry>
        </mxCell>
        <mxCell id="dCpKo4cYCezhhlU8Z5YK-3" value="" style="edgeStyle=elbowEdgeStyle;fontSize=12;html=1;endArrow=ERzeroToMany;startArrow=ERmandOne;rounded=0;entryX=0;entryY=0.5;entryDx=0;entryDy=0;" edge="1" parent="1" target="MVDelJLo3RbLGT03wepj-470">
          <mxGeometry width="100" height="100" relative="1" as="geometry">
            <mxPoint x="1148" y="812" as="sourcePoint" />
            <mxPoint x="1218" y="574" as="targetPoint" />
            <Array as="points">
              <mxPoint x="1190" y="686" />
            </Array>
          </mxGeometry>
        </mxCell>
        <mxCell id="dCpKo4cYCezhhlU8Z5YK-4" value="" style="edgeStyle=elbowEdgeStyle;fontSize=12;html=1;endArrow=ERzeroToMany;startArrow=ERmandOne;rounded=0;" edge="1" parent="1" source="MVDelJLo3RbLGT03wepj-197" target="MVDelJLo3RbLGT03wepj-225">
          <mxGeometry width="100" height="100" relative="1" as="geometry">
            <mxPoint x="840" y="1036" as="sourcePoint" />
            <mxPoint x="966" y="1086" as="targetPoint" />
            <Array as="points" />
          </mxGeometry>
        </mxCell>
        <mxCell id="dCpKo4cYCezhhlU8Z5YK-5" value="" style="edgeStyle=elbowEdgeStyle;fontSize=12;html=1;endArrow=ERzeroToMany;startArrow=ERmandOne;rounded=0;exitX=1;exitY=0.5;exitDx=0;exitDy=0;" edge="1" parent="1" source="MVDelJLo3RbLGT03wepj-222" target="MVDelJLo3RbLGT03wepj-235">
          <mxGeometry width="100" height="100" relative="1" as="geometry">
            <mxPoint x="1204" y="1064" as="sourcePoint" />
            <mxPoint x="1274" y="1089" as="targetPoint" />
            <Array as="points" />
          </mxGeometry>
        </mxCell>
        <mxCell id="dCpKo4cYCezhhlU8Z5YK-6" value="" style="edgeStyle=elbowEdgeStyle;fontSize=12;html=1;endArrow=ERzeroToMany;startArrow=ERmandOne;rounded=0;entryX=1;entryY=0.5;entryDx=0;entryDy=0;" edge="1" parent="1" target="MVDelJLo3RbLGT03wepj-276">
          <mxGeometry width="100" height="100" relative="1" as="geometry">
            <mxPoint x="1148" y="1078" as="sourcePoint" />
            <mxPoint x="1302" y="1287" as="targetPoint" />
            <Array as="points">
              <mxPoint x="1190" y="1176" />
            </Array>
          </mxGeometry>
        </mxCell>
        <mxCell id="dCpKo4cYCezhhlU8Z5YK-7" value="" style="edgeStyle=elbowEdgeStyle;fontSize=12;html=1;endArrow=ERzeroToMany;startArrow=ERzeroToMany;rounded=0;exitX=1;exitY=0.5;exitDx=0;exitDy=0;entryX=0;entryY=0.5;entryDx=0;entryDy=0;startFill=0;" edge="1" parent="1" source="MVDelJLo3RbLGT03wepj-431" target="MVDelJLo3RbLGT03wepj-297">
          <mxGeometry width="100" height="100" relative="1" as="geometry">
            <mxPoint x="882" y="1330" as="sourcePoint" />
            <mxPoint x="882" y="1522" as="targetPoint" />
            <Array as="points" />
          </mxGeometry>
        </mxCell>
        <mxCell id="dCpKo4cYCezhhlU8Z5YK-8" value="" style="edgeStyle=elbowEdgeStyle;fontSize=12;html=1;endArrow=ERzeroToMany;startArrow=ERmandOne;rounded=0;entryX=0.015;entryY=0.75;entryDx=0;entryDy=0;entryPerimeter=0;exitX=1.007;exitY=0.69;exitDx=0;exitDy=0;exitPerimeter=0;" edge="1" parent="1" source="MVDelJLo3RbLGT03wepj-297">
          <mxGeometry width="100" height="100" relative="1" as="geometry">
            <mxPoint x="1148" y="1260" as="sourcePoint" />
            <mxPoint x="1274" y="1430.5" as="targetPoint" />
            <Array as="points">
              <mxPoint x="1257.27" y="1425.5" />
            </Array>
          </mxGeometry>
        </mxCell>
        <mxCell id="dCpKo4cYCezhhlU8Z5YK-9" value="" style="edgeStyle=elbowEdgeStyle;fontSize=12;html=1;endArrow=ERzeroToMany;startArrow=ERmandOne;rounded=0;exitX=1.002;exitY=0.144;exitDx=0;exitDy=0;exitPerimeter=0;" edge="1" parent="1" source="MVDelJLo3RbLGT03wepj-222" target="MVDelJLo3RbLGT03wepj-322">
          <mxGeometry width="100" height="100" relative="1" as="geometry">
            <mxPoint x="1148" y="1148" as="sourcePoint" />
            <mxPoint x="1274" y="1173" as="targetPoint" />
            <Array as="points" />
          </mxGeometry>
        </mxCell>
        <mxCell id="dCpKo4cYCezhhlU8Z5YK-10" value="" style="edgeStyle=elbowEdgeStyle;fontSize=12;html=1;endArrow=ERzeroToMany;startArrow=ERmandOne;rounded=0;entryX=1.003;entryY=0.418;entryDx=0;entryDy=0;exitX=-0.005;exitY=0.878;exitDx=0;exitDy=0;exitPerimeter=0;entryPerimeter=0;" edge="1" parent="1" source="MVDelJLo3RbLGT03wepj-297" target="MVDelJLo3RbLGT03wepj-376">
          <mxGeometry width="100" height="100" relative="1" as="geometry">
            <mxPoint x="965.996" y="1258.66" as="sourcePoint" />
            <mxPoint x="837.63" y="1646" as="targetPoint" />
            <Array as="points">
              <mxPoint x="924" y="1456" />
              <mxPoint x="893.63" y="1610" />
            </Array>
          </mxGeometry>
        </mxCell>
        <mxCell id="dCpKo4cYCezhhlU8Z5YK-11" value="" style="edgeStyle=elbowEdgeStyle;fontSize=12;html=1;endArrow=ERzeroToMany;startArrow=ERmandOne;rounded=0;" edge="1" parent="1" source="MVDelJLo3RbLGT03wepj-313" target="MVDelJLo3RbLGT03wepj-329">
          <mxGeometry width="100" height="100" relative="1" as="geometry">
            <mxPoint x="1270" y="1465" as="sourcePoint" />
            <mxPoint x="1260" y="1666" as="targetPoint" />
            <Array as="points">
              <mxPoint x="1232" y="1568" />
            </Array>
          </mxGeometry>
        </mxCell>
        <mxCell id="dCpKo4cYCezhhlU8Z5YK-12" value="" style="edgeStyle=elbowEdgeStyle;fontSize=12;html=1;endArrow=ERzeroToMany;startArrow=ERmandOne;rounded=0;" edge="1" parent="1" source="MVDelJLo3RbLGT03wepj-326" target="MVDelJLo3RbLGT03wepj-339">
          <mxGeometry width="100" height="100" relative="1" as="geometry">
            <mxPoint x="1190" y="1708" as="sourcePoint" />
            <mxPoint x="1134" y="2044" as="targetPoint" />
            <Array as="points" />
          </mxGeometry>
        </mxCell>
        <mxCell id="dCpKo4cYCezhhlU8Z5YK-16" value="" style="edgeStyle=elbowEdgeStyle;fontSize=12;html=1;endArrow=ERzeroToMany;startArrow=ERmandOne;rounded=0;exitX=1;exitY=0.5;exitDx=0;exitDy=0;" edge="1" parent="1" source="MVDelJLo3RbLGT03wepj-232" target="MVDelJLo3RbLGT03wepj-345">
          <mxGeometry width="100" height="100" relative="1" as="geometry">
            <mxPoint x="1316" y="1722" as="sourcePoint" />
            <mxPoint x="1190" y="1782" as="targetPoint" />
            <Array as="points">
              <mxPoint x="1512" y="1386" />
            </Array>
          </mxGeometry>
        </mxCell>
      </root>
    </mxGraphModel>
  </diagram>
</mxfile>
